<svg xmlns="http://www.w3.org/2000/svg" xmlns:xlink="http://www.w3.org/1999/xlink" width="500" zoomAndPan="magnify" viewBox="0 0 375 374.999991" height="500" preserveAspectRatio="xMidYMid meet" version="1.0"><path fill="#ffffff" d="M 174.175781 105.710938 C 174.132812 105.410156 173.984375 105.136719 173.757812 104.941406 C 173.53125 104.742188 173.238281 104.632812 172.941406 104.632812 L 153.292969 104.621094 C 152.570312 104.621094 151.875 104.335938 151.359375 103.832031 C 150.84375 103.328125 150.542969 102.640625 150.523438 101.917969 C 150.417969 98.035156 150.394531 94.136719 150.457031 90.21875 C 150.59375 81.40625 162.925781 85.527344 167.359375 87.164062 C 168.996094 87.777344 171.636719 88.671875 172.839844 86.761719 C 173.808594 85.222656 175.574219 84.15625 178.132812 83.554688 C 179.425781 83.242188 180.179688 83.753906 180.390625 85.085938 C 181.316406 91.035156 172.898438 90.632812 169.476562 90.261719 C 166.230469 89.914062 162.957031 89.671875 159.65625 89.53125 C 158.222656 89.476562 155.859375 90.285156 156.773438 92.273438 C 156.816406 92.367188 156.878906 92.453125 156.957031 92.523438 C 157.035156 92.589844 157.125 92.644531 157.226562 92.675781 C 158.109375 92.957031 158.988281 93.105469 159.871094 93.121094 C 164.878906 93.199219 169.847656 93.207031 174.777344 93.144531 C 179.683594 93.089844 179.152344 97.867188 178.730469 101.261719 C 178.207031 105.492188 177.519531 109.148438 174.082031 111.972656 C 171.652344 113.972656 169.191406 115.910156 166.703125 117.78125 C 164.742188 119.25 165.40625 122.527344 165.292969 124.621094 C 165.089844 128.34375 159.511719 128.027344 159.179688 124.570312 C 158.832031 121.089844 161.429688 118.367188 164.039062 116.507812 C 166.722656 114.589844 169.308594 112.679688 171.796875 110.78125 C 173.664062 109.355469 174.457031 107.664062 174.175781 105.710938 Z M 174.175781 105.710938 " fill-opacity="1" fill-rule="nonzero"/><path fill="#ffffff" d="M 32.613281 104.621094 L 9.488281 104.628906 C 9.324219 104.625 9.167969 104.6875 9.046875 104.800781 C 8.929688 104.910156 8.851562 105.0625 8.839844 105.226562 C 8.402344 110.453125 9.054688 115.472656 10.175781 120.644531 C 10.347656 121.449219 10.3125 122.203125 10.0625 122.914062 C 9.339844 125.011719 8.234375 126.675781 6.75 127.902344 C 6.148438 128.398438 5.660156 128.304688 5.292969 127.617188 C 5.09375 127.261719 4.894531 126.476562 4.90625 126.066406 C 5.085938 121.074219 5.050781 116.441406 4.804688 112.171875 C 4.648438 109.476562 5.691406 106.753906 6.285156 104.167969 C 6.339844 103.933594 6.28125 103.738281 6.105469 103.578125 C 3.589844 101.234375 2.605469 98.28125 3.160156 94.714844 C 3.382812 93.273438 4.078125 92.046875 5.253906 91.035156 C 5.976562 90.410156 6.917969 90.640625 7.335938 91.472656 C 7.867188 92.539062 8.851562 93.175781 10.039062 93.175781 C 17.378906 93.183594 25.09375 93.183594 33.183594 93.175781 C 36.949219 93.167969 41.109375 93.546875 41.421875 98.386719 C 41.683594 102.402344 40.089844 104.167969 36.167969 104.539062 C 35.902344 104.566406 35.78125 104.710938 35.808594 104.972656 C 35.988281 106.488281 36.238281 107.890625 36.566406 109.183594 C 37.574219 113.179688 38.539062 117.136719 39.464844 121.058594 C 40.132812 123.890625 38.105469 126.585938 35.839844 128.046875 C 35.707031 128.132812 35.542969 128.167969 35.382812 128.144531 C 35.222656 128.125 35.074219 128.042969 34.96875 127.921875 C 34.34375 127.210938 33.945312 126.160156 33.949219 125.226562 C 33.980469 120.964844 34.09375 116.785156 33.609375 112.722656 C 33.296875 110.121094 33.101562 107.554688 33.027344 105.023438 C 33.019531 104.753906 32.882812 104.621094 32.613281 104.621094 Z M 32.613281 104.621094 " fill-opacity="1" fill-rule="nonzero"/><path fill="#ffffff" d="M 57.964844 104.070312 C 53.328125 102.128906 52.144531 94.351562 56.023438 91.171875 C 56.566406 90.730469 57.148438 90.597656 57.773438 90.777344 C 57.894531 90.808594 58.007812 90.867188 58.105469 90.945312 C 58.203125 91.019531 58.28125 91.117188 58.335938 91.226562 C 59.011719 92.539062 60.101562 93.1875 61.601562 93.175781 C 66.601562 93.125 72.339844 92.828125 77.394531 93.75 C 81.140625 94.4375 84.417969 97.09375 85.710938 100.578125 C 86.230469 101.964844 86.480469 104.066406 86.46875 106.878906 C 86.460938 110.664062 86.425781 114.371094 86.359375 118.003906 C 86.347656 118.597656 86.148438 119.121094 85.765625 119.578125 L 79.929688 126.554688 C 79.761719 126.757812 79.550781 126.921875 79.3125 127.035156 C 79.074219 127.144531 78.8125 127.203125 78.550781 127.203125 L 54.683594 127.191406 C 54.332031 127.191406 54.179688 127.015625 54.226562 126.667969 C 54.542969 124.160156 54.808594 121.761719 54.652344 119.171875 C 54.554688 117.539062 54.484375 115.824219 54.449219 114.027344 C 54.375 110.492188 55.585938 107.363281 58.089844 104.632812 C 58.316406 104.386719 58.273438 104.199219 57.964844 104.070312 Z M 79.847656 105.890625 C 77.46875 104.21875 73.128906 104.199219 70.304688 104.316406 C 67.300781 104.445312 64.335938 104.570312 61.410156 104.695312 C 61.257812 104.699219 61.109375 104.75 60.988281 104.839844 C 60.863281 104.925781 60.769531 105.050781 60.714844 105.191406 C 59.667969 107.972656 58.683594 111.867188 59.445312 114.742188 C 59.523438 115.03125 59.691406 115.285156 59.929688 115.464844 C 60.167969 115.648438 60.457031 115.746094 60.753906 115.746094 L 83.414062 115.757812 C 83.609375 115.757812 83.792969 115.683594 83.929688 115.550781 C 84.066406 115.417969 84.148438 115.238281 84.15625 115.046875 C 84.328125 111.078125 82.890625 108.023438 79.847656 105.890625 Z M 79.847656 105.890625 " fill-opacity="1" fill-rule="nonzero"/><path fill="#ffffff" d="M 105.082031 112.078125 C 104.230469 111.78125 103.578125 111.121094 103.121094 110.09375 C 101.550781 106.550781 104.785156 104.273438 107.195312 102.402344 C 107.378906 102.257812 107.398438 102.09375 107.257812 101.914062 C 106.429688 100.84375 105.96875 100.101562 105.875 99.6875 C 104.988281 95.894531 106.097656 92.984375 109.207031 90.960938 C 110.054688 90.40625 110.75 90.5625 111.289062 91.417969 L 112.019531 92.582031 C 112.128906 92.757812 112.28125 92.902344 112.460938 93.003906 C 112.640625 93.105469 112.84375 93.160156 113.050781 93.160156 C 117.097656 93.167969 121.191406 93.179688 125.335938 93.199219 C 134.539062 93.25 136.171875 99.308594 136.378906 107.039062 C 136.464844 109.996094 136.742188 112.8125 137.214844 115.492188 C 137.460938 116.898438 137.109375 118.226562 136.15625 119.472656 C 134.382812 121.808594 132.570312 124.160156 130.722656 126.53125 C 130.5625 126.738281 130.351562 126.910156 130.113281 127.027344 C 129.875 127.144531 129.613281 127.203125 129.34375 127.203125 L 101.984375 127.191406 C 101.9375 127.191406 101.886719 127.179688 101.847656 127.152344 C 101.804688 127.128906 101.769531 127.09375 101.746094 127.050781 C 101.722656 127.007812 101.710938 126.957031 101.714844 126.910156 C 101.714844 126.859375 101.730469 126.8125 101.757812 126.769531 L 108.839844 115.9375 C 108.878906 115.878906 108.925781 115.832031 108.984375 115.800781 C 109.039062 115.769531 109.105469 115.75 109.167969 115.75 L 132.726562 115.71875 C 132.917969 115.722656 133.105469 115.683594 133.277344 115.605469 C 133.453125 115.53125 133.609375 115.421875 133.738281 115.28125 C 133.867188 115.144531 133.96875 114.980469 134.03125 114.800781 C 134.097656 114.621094 134.125 114.433594 134.113281 114.242188 C 133.980469 112.121094 133.519531 109.820312 132.664062 107.878906 C 131.144531 104.421875 126.164062 104.324219 122.875 104.714844 C 121.054688 104.933594 119.308594 105.085938 117.632812 105.175781 C 115.636719 105.285156 113.269531 104.9375 110.527344 104.132812 C 110.277344 104.058594 110.046875 104.097656 109.835938 104.25 C 109.332031 104.609375 108.953125 105.101562 108.699219 105.726562 C 108.632812 105.878906 108.660156 106.015625 108.777344 106.136719 C 109.34375 106.691406 110.035156 106.984375 110.855469 107.015625 C 112.574219 107.066406 114.535156 107.097656 116.734375 107.101562 C 118.429688 107.105469 119.367188 107.949219 119.546875 109.636719 C 119.570312 109.808594 119.585938 109.980469 119.605469 110.15625 C 119.785156 111.828125 119.035156 112.664062 117.351562 112.664062 L 108.347656 112.648438 C 108.246094 112.648438 108.144531 112.671875 108.050781 112.714844 C 107.960938 112.761719 107.878906 112.824219 107.816406 112.90625 C 106.988281 113.945312 105.863281 116.085938 104.316406 115.746094 C 104.160156 115.710938 104.015625 115.640625 103.898438 115.535156 C 103.777344 115.429688 103.6875 115.296875 103.632812 115.144531 C 103.578125 114.996094 103.566406 114.835938 103.59375 114.675781 C 103.617188 114.519531 103.683594 114.371094 103.785156 114.25 L 105.199219 112.472656 C 105.226562 112.441406 105.242188 112.40625 105.25 112.363281 C 105.257812 112.324219 105.253906 112.285156 105.242188 112.246094 C 105.230469 112.207031 105.210938 112.171875 105.183594 112.144531 C 105.15625 112.113281 105.121094 112.089844 105.082031 112.078125 Z M 105.082031 112.078125 " fill-opacity="1" fill-rule="nonzero"/><path fill="#ffffff" d="M 257.109375 94.453125 C 262.730469 96.835938 261.296875 102.417969 261.789062 107.242188 C 262.242188 111.6875 262.703125 116.5 263.175781 121.683594 C 263.40625 124.222656 262.695312 126.242188 261.046875 127.742188 C 259.507812 129.140625 258.085938 127.179688 258.085938 125.738281 C 258.085938 119.742188 258.085938 113.652344 258.082031 107.472656 C 258.078125 105.5625 256.890625 104.613281 254.519531 104.628906 C 247.460938 104.65625 241.65625 104.632812 237.105469 104.554688 C 234.199219 104.511719 231.59375 102.9375 230.808594 99.964844 C 229.992188 96.886719 230.171875 93.167969 232.6875 90.960938 C 232.878906 90.792969 233.132812 90.703125 233.386719 90.714844 C 233.644531 90.726562 233.886719 90.835938 234.066406 91.023438 C 235.355469 92.382812 235.234375 93.136719 237.507812 93.148438 C 242.386719 93.167969 247.203125 93.195312 251.953125 93.230469 C 253.492188 93.242188 255.210938 93.652344 257.109375 94.453125 Z M 257.109375 94.453125 " fill-opacity="1" fill-rule="nonzero"/><path fill="#ffffff" d="M 293.890625 114.949219 C 293.792969 115.425781 293.988281 115.671875 294.480469 115.683594 C 297.617188 115.757812 301.003906 115.785156 304.636719 115.765625 C 308.957031 115.738281 310.308594 111.894531 312.757812 109.160156 C 313.328125 108.527344 313.867188 107.878906 314.378906 107.21875 C 314.546875 106.996094 314.640625 106.726562 314.644531 106.445312 C 314.652344 106.167969 314.566406 105.894531 314.402344 105.667969 C 313.171875 103.949219 311.34375 102.339844 310.78125 100.300781 C 309.582031 95.96875 312.683594 92.765625 316.304688 91.109375 C 316.644531 90.957031 317.027344 90.921875 317.386719 91.019531 C 317.746094 91.113281 318.058594 91.328125 318.277344 91.628906 C 319.359375 93.117188 320.664062 94.445312 322.199219 95.613281 C 323.976562 96.972656 325.457031 98.996094 324.167969 101.308594 C 321.988281 105.238281 317.882812 106.804688 315.199219 110.191406 C 310.867188 115.65625 307.972656 121.191406 306.507812 126.796875 C 306.4375 127.058594 306.265625 127.191406 305.996094 127.191406 L 281.699219 127.1875 C 281.320312 127.1875 281.148438 126.996094 281.183594 126.609375 C 281.632812 121.714844 280.605469 117.484375 279.273438 112.832031 C 278.5 110.144531 279.671875 107.578125 280.59375 105.105469 C 280.6875 104.847656 280.621094 104.648438 280.382812 104.511719 C 277.132812 102.585938 275.167969 99.117188 277.078125 95.554688 C 278.148438 93.566406 279.550781 91.992188 281.28125 90.84375 C 281.402344 90.761719 281.539062 90.710938 281.683594 90.6875 C 281.828125 90.664062 281.976562 90.671875 282.117188 90.710938 C 282.257812 90.75 282.390625 90.816406 282.503906 90.910156 C 282.617188 91.003906 282.707031 91.121094 282.769531 91.253906 C 283.550781 92.867188 284.445312 94.289062 286.054688 95.226562 C 287.320312 95.964844 289.824219 97.25 290.386719 98.578125 C 291.753906 101.820312 290.992188 104.550781 288.09375 106.765625 C 287.511719 107.210938 286.921875 107.230469 286.320312 106.816406 L 284.65625 105.683594 C 284.507812 105.582031 284.332031 105.535156 284.15625 105.542969 C 283.976562 105.550781 283.808594 105.617188 283.671875 105.734375 C 281.292969 107.75 280.933594 113.320312 283.816406 115.234375 C 285.242188 116.179688 288.710938 117.230469 290.035156 115.449219 C 292.773438 111.746094 295.0625 108.316406 296.894531 105.160156 C 296.96875 105.035156 296.996094 104.890625 296.980469 104.75 C 296.964844 104.605469 296.902344 104.472656 296.804688 104.367188 C 294.3125 101.714844 292.488281 98.773438 294.398438 95.167969 C 295.390625 93.289062 296.804688 91.847656 298.640625 90.832031 C 298.765625 90.761719 298.902344 90.71875 299.046875 90.707031 C 299.1875 90.691406 299.332031 90.710938 299.46875 90.757812 C 299.605469 90.804688 299.730469 90.878906 299.835938 90.976562 C 299.941406 91.074219 300.027344 91.195312 300.085938 91.328125 C 300.542969 92.378906 300.957031 93.664062 301.902344 94.367188 C 303.082031 95.253906 304.34375 96 305.691406 96.605469 C 307.867188 97.589844 308.589844 100.136719 308.277344 102.320312 C 308.023438 104.011719 306.964844 105.566406 305.09375 106.984375 C 304.519531 107.417969 303.945312 107.457031 303.367188 107.101562 C 302.59375 106.617188 301.800781 106.140625 300.988281 105.667969 C 300.808594 105.5625 300.59375 105.523438 300.386719 105.558594 C 300.183594 105.59375 299.996094 105.699219 299.855469 105.859375 C 298.089844 107.917969 296.496094 110.023438 295.078125 112.164062 C 294.488281 113.054688 294.09375 113.984375 293.890625 114.949219 Z M 293.890625 114.949219 " fill-opacity="1" fill-rule="nonzero"/><path fill="#ffffff" d="M 367.941406 115.738281 C 371.980469 115.734375 370.324219 108.011719 369.363281 106.289062 C 368.789062 105.257812 367.738281 104.722656 366.21875 104.6875 C 361.394531 104.589844 356.351562 104.578125 351.085938 104.652344 C 348.832031 104.679688 347.074219 104.449219 345.816406 103.953125 C 342.117188 102.492188 341.269531 98.503906 341.789062 94.945312 C 342.015625 93.382812 342.730469 92.0625 343.933594 90.992188 C 344.050781 90.886719 344.1875 90.808594 344.339844 90.757812 C 344.488281 90.707031 344.648438 90.691406 344.804688 90.703125 C 344.960938 90.71875 345.113281 90.765625 345.253906 90.84375 C 345.390625 90.917969 345.511719 91.023438 345.609375 91.148438 C 346.792969 92.699219 347.152344 93.199219 349.269531 93.179688 C 353.8125 93.140625 358.097656 93.160156 362.125 93.242188 C 364.28125 93.289062 366.203125 93.90625 367.894531 95.09375 C 371.210938 97.421875 372.808594 102.859375 372.851562 106.585938 C 372.882812 109.628906 372.898438 112.621094 372.894531 115.566406 C 372.890625 116.210938 372.691406 116.839844 372.324219 117.371094 L 366.328125 126.074219 C 366.085938 126.421875 365.761719 126.707031 365.386719 126.90625 C 365.007812 127.101562 364.589844 127.203125 364.164062 127.203125 L 338.726562 127.1875 C 338.671875 127.1875 338.621094 127.171875 338.570312 127.144531 C 338.523438 127.117188 338.484375 127.074219 338.457031 127.027344 C 338.429688 126.980469 338.414062 126.925781 338.414062 126.871094 C 338.414062 126.8125 338.429688 126.757812 338.457031 126.710938 L 344.027344 116.835938 C 344.214844 116.5 344.488281 116.21875 344.824219 116.027344 C 345.15625 115.832031 345.53125 115.730469 345.917969 115.734375 C 353.339844 115.753906 360.679688 115.757812 367.941406 115.738281 Z M 367.941406 115.738281 " fill-opacity="1" fill-rule="nonzero"/><path fill="#ffffff" d="M 33.992188 153.894531 C 33.8125 152.382812 36.121094 149.082031 36.890625 147.921875 C 37.488281 147.023438 38.296875 146.585938 39.316406 146.601562 C 39.453125 146.605469 39.582031 146.632812 39.703125 146.683594 C 40.511719 147.019531 40.714844 147.578125 40.3125 148.359375 C 38.953125 150.980469 37.273438 153.011719 35.273438 154.457031 C 35.15625 154.539062 35.023438 154.589844 34.882812 154.605469 C 34.742188 154.621094 34.601562 154.597656 34.472656 154.542969 C 34.34375 154.484375 34.230469 154.394531 34.144531 154.28125 C 34.0625 154.167969 34.007812 154.035156 33.992188 153.894531 Z M 33.992188 153.894531 " fill-opacity="1" fill-rule="nonzero"/><path fill="#ffffff" d="M 40.175781 153.375 C 40.785156 151.636719 41.425781 150.035156 42.101562 148.570312 C 42.679688 147.316406 43.625 146.609375 44.933594 146.453125 C 45.109375 146.433594 45.289062 146.453125 45.460938 146.507812 C 45.628906 146.566406 45.78125 146.660156 45.90625 146.785156 C 46.035156 146.910156 46.132812 147.0625 46.191406 147.230469 C 46.253906 147.398438 46.273438 147.574219 46.257812 147.753906 C 46.003906 150.246094 43.445312 153.171875 41.757812 154.734375 C 41.667969 154.816406 41.5625 154.882812 41.445312 154.921875 C 41.332031 154.960938 41.210938 154.980469 41.089844 154.96875 C 40.964844 154.960938 40.847656 154.929688 40.738281 154.871094 C 40.632812 154.816406 40.535156 154.738281 40.460938 154.640625 C 40.121094 154.21875 40.027344 153.792969 40.175781 153.375 Z M 40.175781 153.375 " fill-opacity="1" fill-rule="nonzero"/><path fill="#ffffff" d="M 330.808594 158.890625 C 330.816406 158.746094 330.765625 158.605469 330.667969 158.496094 C 330.574219 158.386719 330.441406 158.320312 330.296875 158.308594 C 328.550781 158.160156 326.804688 158.371094 325.011719 158.382812 C 321.371094 158.410156 317.777344 158.445312 314.222656 158.488281 C 313.230469 158.5 312.339844 158.246094 311.550781 157.722656 C 309.863281 156.601562 308.429688 155.007812 309.097656 152.855469 C 309.554688 151.378906 310.0625 149.992188 310.617188 148.699219 C 311.140625 147.46875 312.019531 146.78125 313.246094 146.628906 C 313.347656 146.617188 313.449219 146.636719 313.539062 146.683594 C 313.628906 146.734375 313.703125 146.808594 313.746094 146.898438 C 314.394531 148.171875 315.351562 148.8125 316.621094 148.816406 C 322.578125 148.839844 328.164062 148.84375 333.386719 148.824219 C 336.238281 148.816406 337.144531 152.1875 336.847656 154.308594 C 336.65625 155.6875 335.289062 156.917969 334.363281 157.980469 C 334.195312 158.171875 334.160156 158.382812 334.265625 158.617188 C 334.652344 159.496094 335.007812 160.449219 335.160156 161.394531 C 335.441406 163.167969 335.792969 164.929688 336.21875 166.679688 C 336.714844 168.753906 336.886719 170.546875 336.726562 172.0625 C 336.46875 174.441406 335.375 176.742188 333.441406 178.96875 C 332.402344 180.164062 330.394531 179.179688 330.507812 177.625 C 331.023438 170.441406 331.171875 165.746094 330.945312 163.546875 C 330.785156 161.976562 330.738281 160.421875 330.808594 158.890625 Z M 330.808594 158.890625 " fill-opacity="1" fill-rule="nonzero"/><path fill="#ffffff" d="M 281.269531 171.195312 C 281.078125 171.558594 281.1875 171.722656 281.597656 171.683594 C 284.714844 171.402344 287.699219 171.320312 290.539062 171.429688 C 290.757812 171.4375 290.972656 171.378906 291.15625 171.265625 C 291.339844 171.152344 291.484375 170.984375 291.574219 170.789062 C 292.859375 167.882812 294.152344 165.078125 295.457031 162.378906 C 296.171875 160.886719 298.070312 160.230469 298.582031 159.015625 C 298.648438 158.863281 298.675781 158.695312 298.667969 158.53125 C 298.660156 158.367188 298.613281 158.207031 298.535156 158.0625 C 298.457031 157.917969 298.34375 157.796875 298.210938 157.699219 C 298.078125 157.605469 297.921875 157.542969 297.761719 157.515625 C 295.566406 157.160156 292.414062 156.210938 292.628906 153.394531 C 292.84375 150.582031 294.195312 148.566406 296.683594 147.34375 C 296.96875 147.203125 297.292969 147.15625 297.605469 147.210938 C 297.921875 147.269531 298.207031 147.421875 298.429688 147.652344 C 299.527344 148.820312 300.953125 149.59375 302.699219 149.980469 C 302.949219 150.03125 303.121094 150.175781 303.226562 150.410156 C 303.988281 152.167969 304.042969 153.679688 303.394531 154.945312 C 302.34375 156.996094 301.429688 159.035156 300.660156 161.054688 C 299.074219 165.226562 297.53125 169.65625 296.03125 174.347656 C 295.277344 176.707031 293.828125 179.914062 290.960938 179.976562 C 286.160156 180.082031 280.65625 180.113281 274.449219 180.0625 C 272.949219 180.050781 271.546875 179.878906 270.238281 179.542969 C 270.109375 179.507812 269.996094 179.433594 269.910156 179.328125 C 269.828125 179.222656 269.785156 179.09375 269.78125 178.960938 C 269.726562 174.5 269.679688 169.898438 269.648438 165.152344 C 269.640625 164.472656 269.691406 163.8125 269.789062 163.167969 C 270.03125 161.628906 271.179688 160.28125 271.878906 158.910156 C 272.011719 158.652344 271.933594 158.503906 271.648438 158.457031 C 270.121094 158.234375 267.242188 157.207031 267.277344 155.265625 C 267.296875 154.046875 267.242188 152.730469 267.667969 151.566406 C 268.386719 149.640625 269.660156 148.230469 271.496094 147.339844 C 271.609375 147.28125 271.742188 147.261719 271.871094 147.28125 C 271.996094 147.300781 272.117188 147.355469 272.210938 147.445312 C 272.992188 148.15625 273.617188 148.902344 274.640625 149.285156 C 275.761719 149.707031 276.769531 150.234375 277.664062 150.863281 C 277.84375 150.988281 277.972656 151.152344 278.046875 151.363281 C 278.738281 153.339844 278.804688 155.242188 278.238281 157.078125 C 277.597656 159.167969 276.507812 158.625 274.839844 158.914062 C 274.734375 158.933594 274.636719 158.984375 274.570312 159.066406 C 274.5 159.148438 274.460938 159.25 274.460938 159.355469 L 274.445312 170.953125 C 274.441406 171.066406 274.484375 171.171875 274.558594 171.253906 C 274.636719 171.335938 274.738281 171.390625 274.851562 171.398438 C 276.019531 171.511719 278.152344 172.253906 278.976562 171.054688 C 279.6875 170.015625 280.25 168.988281 280.65625 167.980469 C 281.851562 165.015625 283.039062 162.152344 284.222656 159.382812 C 284.28125 159.242188 284.292969 159.085938 284.25 158.941406 C 284.207031 158.792969 284.117188 158.667969 283.996094 158.582031 C 283.371094 158.140625 282.785156 157.707031 282.234375 157.28125 C 279.066406 154.851562 280.636719 150.882812 283.222656 148.753906 C 284.039062 148.082031 284.984375 148.425781 285.855469 148.734375 C 289.105469 149.878906 292.019531 152.136719 290.367188 156.007812 C 289.75 157.460938 288.839844 159.519531 286.988281 159.652344 C 286.769531 159.664062 286.558594 159.746094 286.390625 159.882812 C 286.21875 160.019531 286.097656 160.203125 286.035156 160.410156 C 285.59375 161.859375 285.253906 163.273438 284.585938 164.648438 C 283.472656 166.917969 282.363281 169.101562 281.269531 171.195312 Z M 281.269531 171.195312 " fill-opacity="1" fill-rule="nonzero"/><path fill="#ffffff" d="M 368.269531 170.292969 C 368.976562 170.421875 369.707031 170.484375 370.457031 170.480469 C 372.324219 170.480469 373.949219 172.097656 372.503906 173.898438 C 371.292969 175.40625 370.507812 177.558594 368.78125 178.488281 C 367.746094 179.046875 366.796875 179.351562 365.945312 179.402344 C 358.945312 179.792969 351.9375 179.917969 344.929688 179.773438 C 343.617188 179.742188 342.226562 179.550781 340.753906 179.191406 C 340.601562 179.152344 340.457031 179.082031 340.332031 178.980469 C 340.207031 178.878906 340.109375 178.753906 340.039062 178.609375 C 339.972656 178.46875 339.933594 178.308594 339.933594 178.152344 C 339.929688 177.992188 339.964844 177.832031 340.03125 177.6875 C 340.980469 175.644531 342.089844 173.734375 343.363281 171.957031 C 343.871094 171.246094 344.78125 170.730469 345.664062 170.746094 C 351.710938 170.824219 357.730469 170.8125 363.726562 170.714844 C 364.5625 170.703125 364.945312 170.277344 364.875 169.445312 C 364.625 166.449219 364.273438 163.589844 363.824219 160.867188 C 363.714844 160.1875 363.488281 159.5625 363.152344 158.996094 C 363.042969 158.816406 362.890625 158.699219 362.695312 158.636719 C 361.382812 158.242188 359.988281 158.0625 358.503906 158.097656 C 354.40625 158.1875 350.523438 158.171875 346.851562 158.042969 C 345.683594 158 344.671875 157.542969 343.816406 156.664062 C 342.386719 155.203125 342.75 151.816406 343.160156 150.058594 C 343.652344 147.894531 345.644531 146.980469 347.703125 147.679688 C 348.859375 148.082031 350.152344 148.402344 351.394531 148.339844 C 354.277344 148.195312 357.191406 148.167969 360.132812 148.253906 C 363.335938 148.347656 367.125 149.121094 367.644531 152.867188 C 368.441406 158.679688 367.898438 164.089844 367.910156 169.867188 C 367.910156 169.96875 367.945312 170.066406 368.011719 170.144531 C 368.078125 170.222656 368.167969 170.277344 368.269531 170.292969 Z M 368.269531 170.292969 " fill-opacity="1" fill-rule="nonzero"/><path fill="#ffffff" d="M 105.429688 159.675781 C 104.753906 159.472656 104.035156 159.371094 103.277344 159.371094 C 99.007812 159.386719 94.988281 159.375 91.222656 159.339844 C 89.503906 159.328125 87.933594 158.886719 86.511719 158.011719 C 82.46875 155.53125 84.761719 150.300781 87.773438 148.070312 C 88.953125 147.195312 89.773438 147.488281 90.242188 148.945312 C 90.289062 149.097656 90.382812 149.21875 90.519531 149.304688 C 91.03125 149.617188 91.65625 149.769531 92.402344 149.757812 C 98.828125 149.636719 103.96875 149.800781 107.828125 150.246094 C 109.714844 150.464844 110.6875 151.621094 110.746094 153.714844 C 110.898438 159.589844 110.078125 165.617188 109.503906 171.492188 C 109.496094 171.558594 109.503906 171.621094 109.523438 171.683594 C 109.542969 171.746094 109.574219 171.800781 109.617188 171.851562 C 109.660156 171.898438 109.714844 171.9375 109.773438 171.964844 C 109.832031 171.992188 109.894531 172.003906 109.960938 172.003906 C 111.753906 172.03125 114.09375 171.832031 115.785156 172.40625 C 115.964844 172.46875 116.132812 172.570312 116.269531 172.703125 C 116.410156 172.832031 116.519531 172.992188 116.59375 173.167969 C 116.667969 173.347656 116.703125 173.535156 116.699219 173.730469 C 116.691406 173.921875 116.644531 174.109375 116.5625 174.28125 C 115.554688 176.351562 114.417969 178.171875 113.148438 179.742188 C 112.601562 180.421875 111.640625 180.699219 110.800781 180.695312 C 101.855469 180.675781 92.863281 180.671875 83.828125 180.683594 C 83.132812 180.6875 82.460938 180.566406 81.816406 180.324219 C 81.683594 180.273438 81.558594 180.199219 81.457031 180.101562 C 81.355469 180.007812 81.269531 179.890625 81.214844 179.761719 C 81.15625 179.632812 81.125 179.492188 81.121094 179.351562 C 81.117188 179.210938 81.144531 179.070312 81.195312 178.9375 C 82.230469 176.367188 84.851562 171.855469 88.121094 171.980469 C 89.992188 172.054688 91.804688 171.980469 93.675781 172.105469 C 97.605469 172.363281 101.425781 172.410156 105.144531 172.246094 C 105.394531 172.238281 105.632812 172.132812 105.808594 171.957031 C 105.984375 171.777344 106.085938 171.539062 106.089844 171.289062 L 106.394531 161.011719 C 106.414062 160.320312 106.09375 159.875 105.429688 159.675781 Z M 105.429688 159.675781 " fill-opacity="1" fill-rule="nonzero"/><path fill="#ffffff" d="M 180.4375 172.289062 C 179.191406 167.628906 179.066406 163.34375 182.078125 159.210938 C 182.238281 158.992188 182.195312 158.832031 181.945312 158.722656 C 180.078125 157.945312 180.074219 157.289062 180.222656 155.433594 C 180.457031 152.464844 182.054688 149.910156 185.011719 147.773438 C 185.121094 147.695312 185.242188 147.640625 185.375 147.613281 C 185.503906 147.585938 185.636719 147.589844 185.769531 147.617188 C 185.898438 147.648438 186.019531 147.707031 186.125 147.785156 C 186.234375 147.867188 186.320312 147.96875 186.386719 148.085938 L 186.921875 149.089844 C 186.972656 149.179688 187.046875 149.257812 187.136719 149.3125 C 187.226562 149.363281 187.328125 149.390625 187.429688 149.390625 C 192.449219 149.441406 197.773438 149.476562 203.398438 149.496094 C 208.960938 149.515625 208.175781 154.746094 209.066406 158.453125 C 209.316406 159.480469 209.492188 160.480469 209.585938 161.445312 C 209.871094 164.359375 210.167969 167.320312 210.476562 170.332031 C 210.890625 174.449219 209.171875 176.742188 206.714844 179.761719 C 205.945312 180.710938 204.730469 180.484375 204.359375 179.351562 C 204.148438 178.714844 204.078125 178.046875 204.152344 177.347656 C 204.460938 174.425781 205.183594 171.566406 204.953125 168.691406 C 204.710938 165.671875 204.578125 162.632812 204.554688 159.578125 C 204.550781 159.457031 204.507812 159.339844 204.429688 159.246094 C 204.351562 159.15625 204.246094 159.09375 204.125 159.074219 C 203.070312 158.910156 202.058594 158.816406 201.085938 158.792969 C 196.78125 158.6875 191.9375 158.679688 186.550781 158.765625 C 185.519531 158.785156 184.609375 159.179688 184.328125 160.269531 C 183.769531 162.445312 183.96875 164.367188 185.246094 166.269531 C 186.699219 168.433594 187.335938 170.972656 187.164062 173.886719 C 187.039062 175.890625 187.3125 179.128906 184.652344 179.75 C 181.179688 180.550781 178.082031 180.6875 174.613281 180.996094 C 174.054688 181.046875 173.726562 180.792969 173.632812 180.238281 C 173.222656 177.820312 173.550781 175.6875 174.609375 173.835938 C 175.679688 171.957031 178.441406 172.011719 180.183594 172.539062 C 180.417969 172.613281 180.503906 172.53125 180.4375 172.289062 Z M 180.4375 172.289062 " fill-opacity="1" fill-rule="nonzero"/><path fill="#ffffff" d="M 217.664062 158.433594 C 215.828125 157.480469 214.46875 155.507812 214.875 153.554688 C 215.003906 152.9375 215.410156 152.113281 216.09375 151.074219 C 216.890625 149.863281 217.601562 147.828125 219.394531 147.871094 C 219.601562 147.875 219.769531 147.960938 219.902344 148.125 C 220.695312 149.113281 221.753906 149.628906 223.085938 149.667969 C 227.058594 149.785156 231.671875 149.796875 236.925781 149.707031 C 239.714844 149.664062 241.625 150.480469 242.390625 153.394531 C 243.128906 156.167969 240.511719 156.589844 240.585938 158.796875 C 240.636719 160.199219 240.824219 161.636719 241.148438 163.113281 C 241.792969 166.039062 241.996094 169.066406 242.34375 172.019531 C 242.460938 173.007812 242.332031 173.859375 241.953125 174.578125 C 240.847656 176.660156 238.917969 179.480469 236.6875 180.636719 C 236.566406 180.699219 236.433594 180.726562 236.296875 180.71875 C 236.164062 180.710938 236.035156 180.664062 235.921875 180.589844 C 235.8125 180.515625 235.726562 180.410156 235.667969 180.289062 C 235.613281 180.167969 235.589844 180.035156 235.605469 179.902344 L 237.550781 160.132812 C 237.574219 159.875 237.496094 159.617188 237.335938 159.417969 C 237.171875 159.214844 236.9375 159.085938 236.679688 159.058594 C 233.789062 158.734375 230.792969 158.671875 227.683594 158.871094 C 225.6875 159 223.789062 158.839844 221.8125 158.71875 C 219.710938 158.582031 220.15625 161.132812 220.414062 162.378906 C 221.328125 166.699219 221.667969 170.230469 221.441406 172.976562 C 221.214844 175.710938 219.808594 177.777344 217.21875 179.179688 C 216.652344 179.484375 216.039062 179.574219 215.382812 179.449219 C 215.15625 179.410156 215.007812 179.28125 214.9375 179.0625 C 214.503906 177.726562 215.054688 175.449219 215.234375 174.039062 C 215.742188 169.984375 215.707031 165.773438 216.148438 161.921875 C 216.265625 160.90625 216.796875 160.003906 217.746094 159.21875 C 218.113281 158.914062 218.085938 158.652344 217.664062 158.433594 Z M 217.664062 158.433594 " fill-opacity="1" fill-rule="nonzero"/><path fill="#ffffff" d="M 145.460938 160.050781 C 145.40625 159.796875 145.257812 159.566406 145.050781 159.402344 C 144.84375 159.242188 144.582031 159.15625 144.316406 159.160156 C 137.9375 159.316406 132.007812 159.378906 126.527344 159.359375 C 122.410156 159.339844 118.019531 158.003906 120.375 152.679688 C 121.273438 150.652344 122.742188 147.875 125.144531 147.90625 C 125.378906 147.910156 125.578125 147.996094 125.742188 148.15625 L 126.976562 149.355469 C 127.128906 149.503906 127.3125 149.59375 127.523438 149.625 C 128.023438 149.707031 128.542969 149.753906 129.082031 149.757812 C 134.644531 149.800781 140.078125 149.757812 145.386719 149.625 C 148.949219 149.535156 152.070312 151.765625 150.488281 155.71875 C 149.695312 157.691406 147.828125 158.042969 148.242188 160.546875 C 148.703125 163.328125 149.214844 166.152344 149.777344 169.019531 C 150.101562 170.691406 150.257812 172.410156 150.238281 174.167969 C 150.210938 176.921875 147.742188 179.183594 145.394531 180.089844 C 145.183594 180.167969 144.972656 180.179688 144.757812 180.125 C 143.65625 179.835938 143.175781 178.554688 143.339844 177.492188 C 144.152344 172.394531 144.878906 166.9375 145.523438 161.117188 C 145.5625 160.761719 145.539062 160.40625 145.460938 160.050781 Z M 145.460938 160.050781 " fill-opacity="1" fill-rule="nonzero"/><path fill="#ffffff" d="M 261.460938 175.042969 C 260.589844 176.6875 259.269531 180 257.035156 180.070312 C 253.660156 180.175781 249.871094 180.835938 246.652344 179.839844 C 246.53125 179.800781 246.417969 179.742188 246.320312 179.660156 C 246.222656 179.578125 246.144531 179.476562 246.085938 179.363281 C 246.03125 179.25 245.996094 179.128906 245.984375 179.003906 C 245.976562 178.875 245.992188 178.75 246.03125 178.628906 C 246.882812 176.089844 248.15625 173.875 249.859375 171.988281 C 250.167969 171.648438 250.597656 171.441406 251.050781 171.417969 C 253.128906 171.308594 255.3125 171.367188 257.605469 171.605469 C 258.277344 171.667969 258.878906 171.601562 259.414062 171.398438 C 259.960938 171.199219 260.078125 170.847656 259.773438 170.355469 C 258.671875 168.582031 257.628906 166.820312 256.652344 165.066406 C 255.613281 163.210938 255.316406 161.167969 255.757812 158.933594 C 255.769531 158.863281 255.769531 158.789062 255.75 158.71875 C 255.730469 158.648438 255.691406 158.585938 255.644531 158.53125 C 255.59375 158.480469 255.53125 158.441406 255.464844 158.414062 C 255.394531 158.390625 255.320312 158.386719 255.25 158.394531 C 251.898438 158.839844 248.351562 159.613281 247.015625 155.464844 C 246.1875 152.886719 247.023438 149.304688 249.914062 148.457031 C 250.113281 148.398438 250.308594 148.40625 250.503906 148.476562 C 251.679688 148.910156 252.898438 149.175781 254.160156 149.273438 C 258.277344 149.589844 258.625 153.144531 257.679688 156.347656 C 257.394531 157.300781 257.820312 158.296875 258.433594 159.03125 C 259.875 160.753906 261.175781 162.574219 262.332031 164.484375 C 263.605469 166.589844 266.097656 168.777344 266.542969 171.207031 C 266.992188 173.671875 266.910156 176.035156 266.289062 178.292969 C 266.234375 178.503906 266.125 178.695312 265.972656 178.851562 C 265.820312 179.003906 265.632812 179.117188 265.421875 179.175781 C 265.214844 179.238281 264.996094 179.242188 264.785156 179.195312 C 264.574219 179.144531 264.378906 179.042969 264.21875 178.894531 C 263.230469 177.984375 262.851562 176.1875 262.023438 175.011719 C 261.820312 174.714844 261.632812 174.722656 261.460938 175.042969 Z M 261.460938 175.042969 " fill-opacity="1" fill-rule="nonzero"/><path fill="#ffffff" d="M 70.828125 160.195312 C 70.78125 160.050781 70.6875 159.925781 70.566406 159.839844 C 70.441406 159.75 70.296875 159.703125 70.144531 159.699219 C 64.5 159.605469 59.136719 159.648438 54.046875 159.828125 C 52.726562 159.878906 51.375 159.550781 49.992188 158.839844 C 47.519531 157.578125 47.402344 154.425781 48.613281 152.316406 C 49.273438 151.179688 50.054688 150.054688 50.960938 148.941406 C 51.007812 148.882812 51.074219 148.847656 51.144531 148.835938 C 51.214844 148.824219 51.289062 148.839844 51.351562 148.878906 C 52.925781 149.902344 54.796875 150.390625 56.96875 150.351562 C 61.574219 150.265625 66.09375 150.175781 70.53125 150.078125 C 71.605469 150.054688 72.710938 150.109375 73.851562 150.25 C 79.84375 150.992188 79.472656 156.886719 75.332031 159.613281 C 75.21875 159.683594 75.128906 159.785156 75.070312 159.898438 C 75.007812 160.015625 74.976562 160.144531 74.976562 160.273438 C 75.035156 164.140625 75.324219 167.851562 75.84375 171.398438 C 76.042969 172.765625 75.695312 175.386719 74.824219 176.625 C 74.027344 177.75 70.589844 181.800781 69.1875 179.734375 C 69.054688 179.539062 68.992188 179.304688 69.011719 179.074219 C 69.378906 175.261719 69.675781 171.652344 69.894531 168.25 C 70.03125 166.230469 70.5625 164.292969 70.933594 162.296875 C 71.082031 161.507812 71.046875 160.808594 70.828125 160.195312 Z M 70.828125 160.195312 " fill-opacity="1" fill-rule="nonzero"/><path fill="#ffffff" d="M 9.527344 159.964844 C 7.261719 160.101562 4.671875 159.890625 3.652344 157.589844 C 2.652344 155.320312 2.796875 153.230469 4.09375 151.320312 C 4.578125 150.605469 5.234375 150.375 6.058594 150.632812 C 9.433594 151.691406 14.175781 152.710938 12.519531 157.589844 C 12.085938 158.882812 11.992188 160.289062 12.238281 161.816406 C 12.757812 164.992188 13.207031 168.203125 13.585938 171.441406 C 13.59375 171.496094 13.613281 171.542969 13.644531 171.585938 C 13.679688 171.625 13.722656 171.65625 13.773438 171.671875 C 13.824219 171.6875 13.878906 171.6875 13.929688 171.671875 C 13.980469 171.65625 14.023438 171.625 14.058594 171.585938 L 23.316406 160.449219 C 23.464844 160.269531 23.539062 160.039062 23.515625 159.808594 C 23.496094 159.574219 23.382812 159.359375 23.207031 159.210938 C 21.617188 157.875 19.867188 156.859375 20.257812 154.394531 C 20.582031 152.316406 21.664062 150.722656 23.496094 149.609375 C 24.261719 149.144531 25.191406 148.945312 26.03125 149.472656 C 27.328125 150.28125 28.640625 151.109375 29.960938 151.957031 C 31.746094 153.101562 32.234375 154.734375 31.425781 156.859375 C 30.558594 159.140625 29.0625 160.554688 26.945312 161.105469 C 26.476562 161.226562 26.078125 161.46875 25.753906 161.832031 C 22.585938 165.371094 19.402344 168.878906 16.203125 172.359375 C 15.683594 172.917969 15.328125 173.519531 15.140625 174.164062 C 14.9375 174.84375 14.929688 175.589844 15.121094 176.402344 C 16.800781 183.679688 16.136719 190.511719 13.125 196.902344 C 12.710938 197.773438 11.921875 198.613281 10.753906 199.414062 C 10.566406 199.542969 10.359375 199.589844 10.136719 199.546875 C 7.324219 199.027344 8.964844 195.558594 9.203125 193.953125 C 10.644531 184.105469 8.703125 174.480469 8.375 164.25 C 8.332031 162.734375 9.082031 161.726562 9.859375 160.539062 C 9.898438 160.484375 9.917969 160.417969 9.921875 160.347656 C 9.921875 160.277344 9.90625 160.210938 9.871094 160.148438 C 9.835938 160.089844 9.785156 160.039062 9.722656 160.007812 C 9.664062 159.976562 9.59375 159.960938 9.527344 159.964844 Z M 9.527344 159.964844 " fill-opacity="1" fill-rule="nonzero"/><path fill="#ffffff" d="M 308.4375 171.769531 C 308.332031 168.902344 308.882812 165.523438 311.570312 163.835938 C 313.214844 162.808594 314.785156 163.621094 315.003906 165.394531 C 315.308594 167.902344 315.289062 170.742188 314.945312 173.917969 C 314.863281 174.675781 314.535156 175.40625 313.964844 176.113281 C 313.03125 177.257812 311.980469 178.222656 310.8125 179.003906 C 310.144531 179.453125 309.601562 179.632812 309.191406 179.539062 C 308.5 179.375 308.1875 178.945312 308.25 178.238281 C 308.453125 176.082031 308.515625 173.925781 308.4375 171.769531 Z M 308.4375 171.769531 " fill-opacity="1" fill-rule="nonzero"/><path fill="#ffffff" d="M 119.988281 170.597656 C 120.316406 168.257812 122.09375 165.746094 123.863281 164.957031 C 124.085938 164.855469 124.328125 164.8125 124.570312 164.828125 C 124.816406 164.847656 125.050781 164.921875 125.257812 165.054688 C 125.460938 165.183594 125.632812 165.363281 125.753906 165.578125 C 125.871094 165.789062 125.9375 166.03125 125.941406 166.273438 L 126.09375 175.832031 C 126.101562 176.417969 125.878906 176.984375 125.46875 177.402344 C 124.097656 178.820312 121.5 181.128906 119.332031 180.980469 C 119.191406 180.96875 119.058594 180.929688 118.933594 180.863281 C 118.8125 180.796875 118.707031 180.707031 118.621094 180.597656 C 118.535156 180.484375 118.476562 180.359375 118.445312 180.222656 C 118.410156 180.085938 118.410156 179.945312 118.433594 179.808594 C 119.054688 176.652344 119.570312 173.582031 119.988281 170.597656 Z M 119.988281 170.597656 " fill-opacity="1" fill-rule="nonzero"/><path fill="#ffffff" d="M 206.582031 192.746094 C 194.476562 186.960938 182.550781 187.148438 170.808594 193.300781 C 167.828125 194.867188 165.316406 197.445312 162.777344 199.769531 C 161.839844 200.628906 160.882812 200.859375 159.894531 200.464844 C 159.765625 200.410156 159.652344 200.332031 159.554688 200.230469 C 159.460938 200.128906 159.390625 200.011719 159.347656 199.878906 C 159.300781 199.746094 159.289062 199.609375 159.304688 199.472656 C 159.320312 199.332031 159.367188 199.203125 159.4375 199.085938 C 160.222656 197.820312 161.257812 196.671875 162.546875 195.640625 C 169.632812 189.957031 176.902344 185.738281 186.050781 185.339844 C 191.058594 185.117188 196.523438 185.457031 201.28125 186.984375 C 207.277344 188.902344 212.226562 191.300781 216.132812 194.167969 C 217.53125 195.195312 218.183594 196.460938 218.085938 197.964844 C 218.078125 198.089844 218.042969 198.210938 217.984375 198.320312 C 217.929688 198.429688 217.847656 198.527344 217.75 198.601562 C 217.652344 198.679688 217.539062 198.734375 217.417969 198.765625 C 217.296875 198.792969 217.167969 198.796875 217.046875 198.773438 C 214.449219 198.304688 212.515625 196.699219 210.460938 195.027344 C 209.3125 194.101562 207.921875 193.382812 206.582031 192.746094 Z M 206.582031 192.746094 " fill-opacity="1" fill-rule="nonzero"/><path fill="#ffffff" d="M 291.851562 186.839844 C 291.3125 190.4375 290.027344 194.527344 287.523438 197.273438 C 287.253906 197.570312 286.925781 197.738281 286.542969 197.785156 C 286.269531 197.816406 286 197.742188 285.785156 197.574219 C 285.570312 197.40625 285.429688 197.160156 285.398438 196.890625 C 284.816406 192.394531 286.109375 188.726562 289.28125 185.882812 C 289.777344 185.433594 290.351562 185.304688 290.996094 185.5 C 291.277344 185.582031 291.515625 185.761719 291.671875 186.007812 C 291.832031 186.253906 291.894531 186.550781 291.851562 186.839844 Z M 291.851562 186.839844 " fill-opacity="1" fill-rule="nonzero"/><path fill="#ffffff" d="M 151.335938 200.636719 C 151.332031 200.714844 151.355469 200.792969 151.410156 200.855469 C 151.460938 200.917969 151.53125 200.957031 151.613281 200.96875 C 156.027344 201.632812 160.726562 201.484375 165.410156 201.335938 C 168.285156 201.242188 171.035156 202.125 170.792969 205.535156 C 170.585938 208.519531 170.464844 211.296875 170.4375 213.863281 C 170.363281 219.730469 162.769531 219.613281 161.738281 225.351562 C 161.515625 226.589844 160.859375 227.566406 159.765625 228.277344 C 159.6875 228.328125 159.601562 228.363281 159.507812 228.378906 C 159.417969 228.398438 159.324219 228.394531 159.234375 228.378906 C 155.792969 227.621094 156.339844 223.851562 157.8125 221.660156 C 158.328125 220.898438 159.070312 220.242188 160.042969 219.695312 C 162.46875 218.332031 164.667969 216.976562 166.640625 215.636719 C 166.894531 215.464844 167.011719 215.222656 166.988281 214.914062 L 166.652344 211.15625 C 166.632812 210.914062 166.523438 210.726562 166.332031 210.59375 C 165.566406 210.039062 164.683594 209.761719 163.6875 209.757812 C 158.90625 209.738281 154.394531 209.742188 150.152344 209.769531 C 149.113281 209.777344 148.125 209.375 147.1875 208.558594 C 145.839844 207.382812 146.203125 205.1875 146.289062 203.609375 C 146.519531 199.503906 146.742188 196.429688 148.632812 193.402344 C 148.785156 193.160156 148.847656 192.871094 148.804688 192.585938 C 148.761719 192.300781 148.621094 192.042969 148.402344 191.855469 C 146.730469 190.410156 145.683594 189.59375 147.101562 187.324219 C 149.070312 184.148438 153.351562 187.03125 153.320312 189.832031 C 153.300781 191.460938 151.898438 192.140625 151.765625 193.742188 C 151.59375 195.910156 151.449219 198.207031 151.335938 200.636719 Z M 151.335938 200.636719 " fill-opacity="1" fill-rule="nonzero"/><path fill="#ffffff" d="M 269.261719 229.949219 C 269.308594 230.191406 269.449219 230.285156 269.691406 230.234375 C 272.171875 229.671875 274.71875 228.976562 277.335938 228.144531 C 279.105469 227.578125 281.910156 226.925781 283.582031 228.019531 C 283.683594 228.085938 283.765625 228.175781 283.820312 228.28125 C 283.878906 228.390625 283.910156 228.511719 283.90625 228.632812 C 283.90625 228.753906 283.875 228.871094 283.816406 228.976562 C 283.753906 229.082031 283.671875 229.171875 283.566406 229.238281 C 283.136719 229.511719 282.710938 229.707031 282.292969 229.816406 C 276.65625 231.351562 270.726562 232.792969 264.503906 234.140625 C 262.785156 234.511719 260.90625 234.957031 259.25 235.582031 C 250.695312 238.792969 242.089844 238.667969 233.441406 235.210938 C 231.351562 234.375 229.769531 233.164062 228.691406 231.582031 C 228.597656 231.445312 228.546875 231.285156 228.542969 231.121094 C 228.535156 230.957031 228.578125 230.796875 228.664062 230.65625 C 228.746094 230.511719 228.867188 230.398438 229.015625 230.324219 C 229.160156 230.25 229.328125 230.222656 229.488281 230.238281 C 230.144531 230.300781 230.765625 230.511719 231.34375 230.871094 C 234.078125 232.558594 236.765625 234.160156 240.015625 234.59375 C 253.617188 236.390625 266.734375 230.574219 274.742188 219.714844 C 280.601562 211.773438 282.152344 201.058594 276.59375 192.710938 C 273.992188 188.789062 270.335938 187.484375 265.628906 188.800781 C 263.960938 189.269531 263.707031 192.742188 263.636719 194.34375 C 263.628906 194.566406 263.558594 194.785156 263.429688 194.96875 C 263.304688 195.15625 263.128906 195.300781 262.921875 195.394531 C 260.621094 196.40625 259.414062 192.679688 259.507812 191.039062 C 259.699219 187.683594 263.328125 186.347656 266.285156 186.210938 C 270.679688 186.011719 277.671875 187.558594 280.355469 191.496094 C 282.667969 194.90625 284.167969 198.542969 284.847656 202.40625 C 284.851562 202.441406 284.871094 202.476562 284.894531 202.507812 C 284.917969 202.535156 284.949219 202.554688 284.988281 202.566406 C 285.023438 202.578125 285.058594 202.582031 285.097656 202.570312 C 285.132812 202.5625 285.167969 202.542969 285.195312 202.515625 C 286.679688 200.996094 288.085938 199.441406 289.402344 197.855469 C 291.363281 195.484375 293.402344 193.972656 296.402344 193.042969 C 299.992188 191.929688 303.757812 191.464844 306.695312 194.136719 C 308.175781 195.484375 308.972656 197.054688 309.074219 198.851562 C 309.246094 201.921875 306.898438 203.871094 303.820312 203.0625 C 303.5625 202.992188 303.34375 202.828125 303.207031 202.601562 C 303.070312 202.375 303.023438 202.101562 303.082031 201.84375 C 303.175781 201.445312 303.410156 201.132812 303.792969 200.898438 C 304.625 200.386719 305.445312 199.898438 306.253906 199.429688 C 306.296875 199.40625 306.335938 199.375 306.363281 199.335938 C 306.394531 199.296875 306.414062 199.253906 306.429688 199.207031 C 306.441406 199.160156 306.445312 199.109375 306.4375 199.0625 C 306.429688 199.011719 306.414062 198.964844 306.390625 198.925781 C 302.8125 192.714844 292.914062 200.113281 289.902344 203.136719 C 288.304688 204.738281 286.710938 206.890625 285.125 209.589844 C 280.730469 217.078125 275.902344 223.777344 269.324219 229.75 C 269.269531 229.800781 269.25 229.867188 269.261719 229.949219 Z M 269.261719 229.949219 " fill-opacity="1" fill-rule="nonzero"/><path fill="#ffffff" d="M 90.007812 194.644531 C 91.308594 198.71875 93.382812 201.691406 94.644531 201.289062 C 95.90625 200.886719 95.878906 197.257812 94.578125 193.183594 C 93.277344 189.113281 91.203125 186.136719 89.941406 186.539062 C 88.679688 186.941406 88.707031 190.570312 90.007812 194.644531 Z M 90.007812 194.644531 " fill-opacity="1" fill-rule="nonzero"/><path fill="#ffffff" d="M 105.953125 229.113281 C 106.671875 229.285156 106.785156 229.097656 106.292969 228.542969 C 104.332031 226.320312 102.375 224.167969 100.414062 222.074219 C 99.300781 220.886719 98.445312 219.390625 97.8125 217.914062 C 95.90625 213.410156 93.117188 209.058594 89.449219 204.859375 C 87.867188 203.042969 86.390625 201.871094 85.023438 201.339844 C 83.144531 200.621094 81.023438 200.234375 78.660156 200.179688 C 77.714844 200.160156 75.421875 200.316406 75.355469 201.644531 C 75.292969 202.765625 76.054688 204.445312 77.492188 204.097656 C 78.265625 203.917969 79.035156 203.828125 79.8125 203.828125 C 79.945312 203.828125 80.074219 203.867188 80.1875 203.941406 C 80.296875 204.015625 80.386719 204.125 80.4375 204.246094 C 80.683594 204.851562 80.636719 205.433594 80.300781 206 C 79.480469 207.363281 78.242188 207.796875 76.585938 207.304688 C 74.164062 206.582031 72.609375 205.082031 71.910156 202.800781 C 71.285156 200.769531 71.683594 199.007812 73.109375 197.515625 C 78.878906 191.464844 87.085938 197.113281 92.082031 201.074219 C 93.144531 201.921875 94.011719 202.957031 94.679688 204.1875 C 95.40625 205.527344 95.953125 205.457031 96.324219 203.976562 C 97.207031 200.484375 98.351562 197.4375 99.765625 194.835938 C 101.242188 192.125 103.355469 190.296875 106.109375 189.351562 C 110.246094 187.933594 114.445312 187.316406 118.707031 187.496094 C 121.171875 187.601562 125.128906 188.765625 123.324219 192.269531 C 122.375 194.125 119.925781 197.738281 117.464844 196.519531 C 117.253906 196.414062 117.203125 196.257812 117.304688 196.042969 C 117.941406 194.761719 120.949219 190.441406 117.570312 190.050781 C 110.664062 189.253906 104.984375 193.125 102.28125 199.480469 C 99.523438 205.953125 99.933594 214.308594 104.019531 220.128906 C 108.816406 226.953125 115.058594 232.234375 123.1875 234.742188 C 129.648438 236.738281 137.183594 235.984375 144.039062 235.296875 C 147.328125 234.964844 149.972656 233.359375 153.070312 232.441406 C 153.261719 232.382812 153.460938 232.390625 153.648438 232.457031 C 153.832031 232.527344 153.988281 232.65625 154.089844 232.824219 C 154.351562 233.226562 154.300781 233.589844 153.9375 233.910156 C 151.742188 235.859375 148.90625 237.140625 145.917969 237.585938 C 141.046875 238.304688 136.828125 238.683594 133.257812 238.714844 C 126.546875 238.777344 120.261719 237.535156 114.40625 234.988281 C 112.714844 234.253906 111.015625 233.679688 109.304688 233.269531 C 106.984375 232.710938 104.785156 232 102.703125 231.128906 C 101.394531 230.582031 99.890625 230.191406 98.191406 229.964844 C 93.515625 229.347656 88.757812 228.835938 84.449219 227.449219 C 84.117188 227.347656 83.925781 227.128906 83.867188 226.792969 C 83.851562 226.714844 83.855469 226.632812 83.871094 226.550781 C 83.890625 226.472656 83.921875 226.398438 83.972656 226.332031 C 84.019531 226.265625 84.082031 226.210938 84.152344 226.167969 C 84.222656 226.125 84.300781 226.097656 84.378906 226.089844 C 87.546875 225.667969 90.738281 225.675781 93.957031 226.113281 C 98.074219 226.671875 101.96875 228.15625 105.953125 229.113281 Z M 105.953125 229.113281 " fill-opacity="1" fill-rule="nonzero"/><path fill="#ffffff" d="M 335.117188 205.832031 L 338.8125 200.007812 C 338.878906 199.90625 338.902344 199.789062 338.882812 199.671875 C 338.859375 199.554688 338.796875 199.453125 338.703125 199.382812 C 336.484375 197.710938 334.871094 195.78125 333.863281 193.59375 C 333.746094 193.34375 333.589844 193.3125 333.386719 193.5 C 332.589844 194.242188 332.046875 195.21875 330.945312 195.554688 C 329.035156 196.136719 327.316406 195.710938 325.78125 194.285156 C 323.804688 192.457031 327.929688 189.136719 329.078125 188.777344 C 331.59375 187.984375 336.015625 190.769531 337.90625 192.523438 C 340.265625 194.726562 342.660156 196.824219 345.082031 198.824219 C 347.511719 200.828125 344.945312 204.902344 343.394531 206.777344 C 341.097656 209.542969 339.191406 212.160156 337.675781 214.625 C 336.988281 215.738281 335.996094 216.015625 334.703125 215.460938 C 333.070312 214.761719 331.367188 214.070312 329.589844 213.375 C 328.050781 212.769531 325.054688 211.304688 324.390625 209.714844 C 324.363281 209.644531 324.320312 209.585938 324.261719 209.535156 C 324.207031 209.488281 324.136719 209.453125 324.066406 209.4375 C 323.992188 209.421875 323.917969 209.421875 323.84375 209.441406 C 323.773438 209.460938 323.707031 209.496094 323.648438 209.546875 C 323.058594 210.074219 322.40625 210.484375 321.695312 210.777344 C 319.910156 211.507812 317.269531 209.085938 316.386719 207.835938 C 316.183594 207.546875 316.097656 207.191406 316.15625 206.84375 C 316.210938 206.496094 316.40625 206.183594 316.691406 205.980469 L 320.125 203.46875 C 320.320312 203.324219 320.550781 203.242188 320.792969 203.226562 C 322.449219 203.136719 325.695312 204.261719 325.808594 206.480469 C 325.816406 206.652344 325.875 206.820312 325.972656 206.960938 C 326.074219 207.101562 326.210938 207.210938 326.371094 207.277344 L 332.261719 209.769531 C 332.328125 209.800781 332.398438 209.808594 332.472656 209.800781 C 332.542969 209.789062 332.609375 209.761719 332.667969 209.71875 C 332.722656 209.671875 332.765625 209.613281 332.792969 209.546875 C 332.820312 209.476562 332.828125 209.402344 332.816406 209.332031 C 332.398438 206.714844 330.164062 205.332031 328.792969 203.199219 C 328.707031 203.0625 328.570312 202.960938 328.417969 202.914062 C 328.261719 202.871094 328.09375 202.882812 327.945312 202.949219 C 326.488281 203.617188 324.050781 204.136719 322.765625 202.800781 C 322.160156 202.171875 321.683594 201.542969 321.339844 200.914062 C 321.207031 200.679688 321.144531 200.410156 321.160156 200.136719 C 321.171875 199.863281 321.265625 199.601562 321.425781 199.382812 C 322.445312 197.964844 324.554688 195.757812 326.511719 196.152344 C 327.890625 196.429688 329.242188 197.226562 330.574219 198.546875 C 330.734375 198.703125 330.757812 198.878906 330.648438 199.074219 L 329.898438 200.394531 C 329.8125 200.542969 329.828125 200.683594 329.945312 200.808594 L 334.574219 205.875 C 334.777344 206.097656 334.957031 206.082031 335.117188 205.832031 Z M 335.117188 205.832031 " fill-opacity="1" fill-rule="nonzero"/><path fill="#ffffff" d="M 45.070312 197.617188 C 44.664062 196.820312 44.859375 196.011719 45.527344 195.441406 C 48.085938 193.28125 50.972656 192.601562 54.183594 193.394531 C 56.761719 194.039062 54.609375 196.285156 55.871094 197.773438 C 58.085938 200.390625 59.871094 202.992188 61.222656 205.570312 C 62.277344 207.589844 62.066406 209.402344 60.59375 211.007812 C 56.820312 215.101562 53.59375 218.160156 48.734375 221.511719 C 47.449219 222.394531 46.25 222.898438 45.136719 223.027344 C 43.636719 223.203125 39.953125 223.523438 39.109375 221.976562 C 39.019531 221.804688 38.960938 221.613281 38.941406 221.417969 C 38.921875 221.222656 38.941406 221.023438 38.996094 220.835938 C 39.054688 220.648438 39.148438 220.472656 39.273438 220.320312 C 39.402344 220.167969 39.554688 220.042969 39.730469 219.949219 C 43.863281 217.761719 47.921875 215.628906 51.90625 213.542969 C 52.453125 213.257812 52.972656 212.917969 53.472656 212.527344 C 53.703125 212.34375 53.851562 212.082031 53.894531 211.792969 C 53.9375 211.503906 53.867188 211.207031 53.699219 210.96875 C 52.191406 208.832031 50.78125 206.625 49.472656 204.359375 C 48.667969 202.972656 47.613281 201.871094 46.308594 201.050781 C 46.136719 200.945312 45.941406 200.890625 45.746094 200.894531 C 42.78125 200.945312 40.878906 203.269531 39.019531 205.355469 C 36.230469 208.472656 31.03125 210.402344 27.960938 206.21875 C 26.6875 204.488281 25.820312 202.304688 25.355469 199.671875 C 25.339844 199.582031 25.339844 199.488281 25.359375 199.394531 C 25.382812 199.304688 25.417969 199.21875 25.472656 199.144531 C 25.941406 198.511719 26.523438 198.089844 27.222656 197.878906 C 31.054688 196.710938 33.6875 197.636719 35.117188 200.65625 C 35.152344 200.730469 35.207031 200.800781 35.273438 200.851562 C 35.339844 200.90625 35.417969 200.941406 35.503906 200.957031 C 35.585938 200.976562 35.671875 200.972656 35.753906 200.953125 C 35.835938 200.929688 35.914062 200.890625 35.976562 200.835938 C 36.566406 200.324219 37.183594 199.832031 37.824219 199.355469 C 39.734375 197.945312 41.933594 197.621094 44.425781 198.378906 C 44.527344 198.410156 44.636719 198.410156 44.738281 198.378906 C 44.839844 198.347656 44.929688 198.289062 44.996094 198.210938 C 45.066406 198.128906 45.109375 198.03125 45.121094 197.925781 C 45.132812 197.820312 45.117188 197.714844 45.070312 197.617188 Z M 45.070312 197.617188 " fill-opacity="1" fill-rule="nonzero"/><path fill="#ffffff" d="M 242.519531 208.996094 C 242.167969 208.886719 241.632812 208.851562 240.917969 208.890625 C 237.03125 209.117188 233.113281 209.191406 229.175781 209.113281 C 227.671875 209.082031 224.367188 208.445312 224.359375 206.332031 C 224.359375 205.375 224.277344 204.382812 224.648438 203.5 C 225.046875 202.550781 225.394531 201.617188 225.695312 200.699219 C 226.007812 199.75 226.726562 199.253906 227.851562 199.214844 C 228.101562 199.203125 228.300781 199.300781 228.4375 199.511719 C 229.027344 200.390625 229.816406 200.800781 230.800781 200.746094 C 234.253906 200.5625 237.875 200.476562 241.667969 200.488281 C 244.128906 200.496094 245.914062 201.546875 246.605469 204.054688 C 246.984375 205.421875 247.523438 206.671875 247.75 208.113281 C 248.390625 212.066406 248.9375 215.851562 249.390625 219.464844 C 249.742188 222.25 248.429688 225.273438 245.785156 226.535156 C 244.425781 227.183594 243.132812 225.996094 242.996094 224.636719 C 242.785156 222.496094 243.15625 220.363281 243.214844 218.203125 C 243.285156 215.371094 243.367188 212.75 243.460938 210.332031 C 243.484375 209.648438 243.171875 209.203125 242.519531 208.996094 Z M 242.519531 208.996094 " fill-opacity="1" fill-rule="nonzero"/><path fill="#ffffff" d="M 122.835938 209.714844 C 120.53125 209.441406 119.503906 208.085938 119.75 205.640625 C 119.972656 203.457031 121.023438 201.554688 122.898438 199.933594 C 123.175781 199.691406 123.53125 199.558594 123.898438 199.558594 C 124.269531 199.558594 124.625 199.691406 124.902344 199.933594 C 125.617188 200.5625 126.285156 201.261719 127.316406 201.28125 C 131.21875 201.367188 135.371094 201.195312 139.273438 201.710938 C 140.171875 201.832031 140.871094 202.21875 141.371094 202.871094 C 142.519531 204.375 143.09375 205.683594 143.09375 206.800781 C 143.09375 210.296875 143.160156 213.769531 142.894531 217.226562 C 142.71875 219.53125 142.703125 221.875 142.847656 224.253906 C 143.039062 227.382812 141.164062 228.160156 138.445312 228.234375 C 133.570312 228.359375 128.5625 228.355469 123.421875 228.230469 C 120.839844 228.160156 119.882812 226.675781 119.96875 224.277344 C 120.121094 220.269531 120.445312 216.882812 120.945312 214.113281 C 121.203125 212.683594 121.886719 211.355469 122.992188 210.121094 C 123.199219 209.886719 123.148438 209.75 122.835938 209.714844 Z M 125.984375 220.511719 L 139.136719 220.621094 C 139.21875 220.625 139.304688 220.609375 139.378906 220.578125 C 139.457031 220.546875 139.527344 220.5 139.585938 220.441406 C 139.644531 220.382812 139.691406 220.316406 139.722656 220.238281 C 139.757812 220.164062 139.773438 220.082031 139.773438 220 L 139.84375 212.644531 C 139.847656 211.894531 139.578125 211.171875 139.097656 210.636719 C 138.613281 210.097656 137.953125 209.792969 137.265625 209.789062 L 128.054688 209.707031 C 127.363281 209.703125 126.699219 209.996094 126.207031 210.523438 C 125.714844 211.050781 125.433594 211.769531 125.425781 212.523438 L 125.359375 219.875 C 125.359375 219.957031 125.375 220.039062 125.40625 220.117188 C 125.433594 220.195312 125.480469 220.261719 125.539062 220.324219 C 125.597656 220.382812 125.664062 220.429688 125.742188 220.460938 C 125.820312 220.492188 125.898438 220.511719 125.984375 220.511719 Z M 125.984375 220.511719 " fill-opacity="1" fill-rule="nonzero"/><path fill="#ffffff" d="M 259.027344 210.121094 C 259.125 209.429688 258.828125 209.046875 258.136719 208.976562 C 256.554688 208.808594 255.042969 208.769531 253.597656 208.855469 C 250.765625 209.015625 250.464844 204.113281 250.71875 202.34375 C 250.910156 200.996094 251.660156 200.066406 252.960938 199.5625 C 253.179688 199.472656 253.402344 199.460938 253.625 199.515625 C 255.34375 199.949219 256.980469 200.179688 258.539062 200.203125 C 261.929688 200.253906 262.574219 207.179688 262.464844 209.421875 C 262.378906 211.03125 261.730469 212.449219 260.511719 213.679688 C 260.378906 213.808594 260.214844 213.902344 260.039062 213.957031 C 259.859375 214.007812 259.671875 214.011719 259.492188 213.972656 C 259.3125 213.933594 259.144531 213.847656 259.003906 213.726562 C 258.863281 213.605469 258.757812 213.449219 258.691406 213.277344 C 258.347656 212.316406 258.882812 211.0625 259.027344 210.121094 Z M 259.027344 210.121094 " fill-opacity="1" fill-rule="nonzero"/><path fill="#ffffff" d="M 178.167969 209.34375 C 176.320312 209.078125 174.242188 208.433594 174.175781 206.238281 C 174.121094 204.65625 174.238281 199.246094 177.285156 200.265625 C 179.058594 200.859375 180.808594 201.441406 182.539062 202.015625 C 183.066406 202.191406 183.519531 202.542969 183.820312 203.007812 C 184.125 203.472656 184.261719 204.027344 184.207031 204.582031 L 183.824219 208.601562 C 183.800781 208.828125 183.710938 209.027344 183.554688 209.195312 C 183.109375 209.660156 182.550781 210.046875 181.878906 210.359375 C 181.664062 210.453125 181.476562 210.601562 181.332031 210.789062 C 181.1875 210.976562 181.089844 211.195312 181.050781 211.425781 C 180.636719 213.765625 180.40625 215.898438 180.359375 217.828125 C 180.300781 219.824219 181.855469 219.898438 183.417969 219.535156 C 183.738281 219.457031 183.996094 219.253906 184.191406 218.929688 C 185.914062 215.96875 187.53125 213.074219 189.042969 210.246094 C 189.097656 210.144531 189.109375 210.027344 189.082031 209.917969 C 189.054688 209.804688 188.984375 209.710938 188.886719 209.644531 C 186.957031 208.433594 186.070312 206.714844 186.234375 204.484375 C 186.34375 203.027344 187.289062 201.648438 189.066406 200.347656 C 189.15625 200.28125 189.261719 200.238281 189.371094 200.222656 C 189.480469 200.203125 189.59375 200.210938 189.699219 200.246094 C 191.546875 200.847656 194.941406 201.667969 195.558594 203.796875 C 196.269531 206.234375 195.582031 209.71875 192.851562 210.65625 C 192.148438 210.894531 191.625 211.351562 191.273438 212.035156 C 190.25 214.015625 189.058594 215.984375 187.703125 217.9375 C 187.457031 218.292969 187.292969 218.675781 187.207031 219.082031 C 187.183594 219.1875 187.1875 219.292969 187.214844 219.394531 C 187.242188 219.496094 187.292969 219.589844 187.363281 219.667969 C 187.429688 219.746094 187.519531 219.808594 187.617188 219.847656 C 187.714844 219.886719 187.820312 219.902344 187.925781 219.894531 C 190.371094 219.679688 192.871094 219.589844 195.417969 219.628906 C 196.503906 219.644531 197.4375 219.453125 198.46875 219.238281 C 198.585938 219.210938 198.691406 219.164062 198.785156 219.089844 C 198.878906 219.019531 198.953125 218.925781 199.007812 218.824219 C 199.601562 217.628906 199.792969 216.277344 200.363281 215.082031 C 201.082031 213.566406 202.132812 212.199219 203.515625 210.980469 C 203.550781 210.949219 203.578125 210.910156 203.59375 210.863281 C 203.609375 210.816406 203.617188 210.769531 203.609375 210.71875 C 203.601562 210.671875 203.582031 210.628906 203.550781 210.589844 C 203.523438 210.550781 203.484375 210.519531 203.441406 210.5 C 202.257812 209.96875 201.074219 209.5 199.886719 209.097656 C 194.382812 207.230469 198.71875 198.71875 202.234375 200.050781 C 203.875 200.671875 205.453125 201.410156 206.96875 202.261719 C 209.441406 203.648438 208.570312 207.921875 207.277344 209.769531 C 206.195312 211.308594 206.148438 213.296875 205.511719 215.074219 C 204.707031 217.339844 203.96875 219.726562 203.292969 222.238281 C 202.847656 223.894531 201.472656 226.664062 199.519531 226.75 C 194.28125 226.984375 189.242188 227.28125 184.394531 227.640625 C 181.261719 227.875 176.785156 228.085938 176.273438 223.949219 C 175.808594 220.234375 175.804688 216.542969 176.253906 212.867188 C 176.40625 211.601562 177.378906 210.734375 178.34375 210.03125 C 178.402344 209.984375 178.449219 209.921875 178.472656 209.851562 C 178.5 209.78125 178.503906 209.703125 178.484375 209.628906 C 178.464844 209.554688 178.425781 209.488281 178.371094 209.4375 C 178.3125 209.386719 178.246094 209.355469 178.167969 209.34375 Z M 178.167969 209.34375 " fill-opacity="1" fill-rule="nonzero"/><path fill="#ffffff" d="M 217.441406 210.152344 C 216.507812 209.9375 215.527344 210.191406 214.59375 209.863281 C 213.78125 209.574219 212.96875 209.101562 212.15625 208.445312 C 209.484375 206.277344 210.953125 200.816406 214.136719 199.9375 C 214.335938 199.882812 214.550781 199.90625 214.734375 200.007812 C 216.089844 200.730469 217.417969 201.222656 218.722656 201.476562 C 220.183594 201.769531 220.976562 202.726562 221.09375 204.347656 C 221.355469 207.84375 221.871094 211.570312 222.648438 215.535156 C 223.011719 217.394531 222.902344 219.007812 223.105469 220.8125 C 223.371094 223.183594 221.738281 225.855469 220.191406 227.648438 C 220.035156 227.828125 219.851562 227.859375 219.644531 227.742188 C 218.546875 227.089844 218.003906 226.265625 218.011719 225.273438 C 218.042969 220.308594 218.046875 215.507812 218.015625 210.863281 C 218.011719 210.476562 217.820312 210.238281 217.441406 210.152344 Z M 217.441406 210.152344 " fill-opacity="1" fill-rule="nonzero"/><path fill="#ffffff" d="M 306.347656 217.945312 C 306.667969 218.113281 306.957031 218.066406 307.207031 217.804688 L 313.433594 211.222656 C 313.664062 210.976562 313.960938 210.792969 314.292969 210.699219 C 314.621094 210.605469 314.96875 210.605469 315.300781 210.691406 C 316.4375 210.992188 317.566406 211.542969 318.6875 212.335938 C 320.914062 213.914062 323.054688 215.347656 325.101562 216.632812 C 325.40625 216.824219 325.570312 217.097656 325.585938 217.457031 C 325.648438 218.917969 325.789062 220.457031 325.21875 221.859375 C 324.886719 222.6875 324.605469 223.550781 324.375 224.449219 C 324.320312 224.636719 324.339844 224.839844 324.429688 225.011719 C 325.484375 227.117188 327.816406 228.679688 324.359375 230.472656 C 323.035156 231.164062 321.863281 230.816406 320.84375 229.441406 C 320.242188 228.621094 319.992188 227.746094 320.097656 226.820312 C 320.328125 224.78125 320.714844 222.835938 321.265625 220.980469 C 321.53125 220.066406 321.5625 218.847656 320.714844 218.179688 C 320.070312 217.679688 319.425781 217.28125 318.777344 216.980469 C 318.585938 216.890625 318.386719 216.875 318.183594 216.9375 C 317.621094 217.113281 317.144531 217.4375 316.75 217.902344 C 314.6875 220.355469 312.4375 222.429688 310.007812 224.128906 C 306.792969 226.375 300.339844 218.390625 298.769531 216.160156 C 298.640625 215.976562 298.453125 215.84375 298.238281 215.792969 C 296.609375 215.378906 294.316406 215.949219 294.144531 213.597656 C 293.964844 211.21875 296.746094 210.257812 298.742188 210.328125 C 299.597656 210.359375 300.074219 210.914062 300.363281 211.65625 C 301.394531 214.285156 303.386719 216.382812 306.347656 217.945312 Z M 306.347656 217.945312 " fill-opacity="1" fill-rule="nonzero"/><path fill="#ffffff" d="M 174.601562 245.890625 C 183.648438 249.507812 192.769531 249.933594 201.96875 247.164062 C 207.640625 245.453125 212.253906 242.578125 215.808594 238.542969 C 221.671875 231.882812 224.675781 225.199219 224.054688 216.082031 C 223.953125 214.519531 223.171875 212.746094 224.78125 211.496094 C 225.019531 211.308594 225.324219 211.222656 225.625 211.25 C 225.925781 211.277344 226.207031 211.417969 226.410156 211.644531 C 227.074219 212.386719 227.445312 213.25 227.523438 214.234375 C 227.804688 217.683594 227.683594 221.242188 227.167969 224.90625 C 226.875 226.984375 226.203125 228.980469 225.152344 230.886719 C 219.46875 241.234375 210 250.164062 198.402344 251.851562 C 193.414062 252.574219 187.609375 252.777344 182.6875 251.925781 C 174.023438 250.425781 166.625 246.570312 160.503906 240.367188 C 153.359375 233.125 150.585938 224.367188 152.183594 214.09375 C 152.460938 212.304688 154.011719 211.042969 155.613281 212.417969 C 155.765625 212.554688 155.828125 212.722656 155.804688 212.925781 C 154.652344 222.15625 156.492188 231.996094 163.59375 238.582031 C 167.265625 241.984375 170.933594 244.421875 174.601562 245.890625 Z M 174.601562 245.890625 " fill-opacity="1" fill-rule="nonzero"/><path fill="#ffffff" d="M 62.28125 221.234375 C 62.328125 221.214844 62.375 221.1875 62.410156 221.148438 C 62.441406 221.105469 62.464844 221.058594 62.476562 221.007812 C 62.488281 220.953125 62.484375 220.902344 62.46875 220.847656 C 62.453125 220.800781 62.425781 220.753906 62.386719 220.714844 C 59.828125 218.320312 60.660156 214.902344 63.453125 213.28125 C 65.074219 212.34375 68.355469 211.199219 69.253906 213.695312 C 69.554688 214.550781 69.941406 215.363281 70.414062 216.132812 C 71.6875 218.199219 70.347656 220.34375 68.554688 221.648438 C 66.476562 223.167969 64.78125 224.203125 63.46875 224.757812 C 62.375 225.226562 60.824219 225.367188 58.8125 225.179688 C 58.605469 225.160156 58.472656 225.046875 58.410156 224.84375 L 58.21875 224.246094 C 57.945312 223.367188 58.242188 222.765625 59.101562 222.441406 Z M 62.28125 221.234375 " fill-opacity="1" fill-rule="nonzero"/><path fill="#ffffff" d="M 79.949219 237.574219 C 79.96875 237.550781 79.980469 237.527344 79.992188 237.5 C 80 237.472656 80.003906 237.441406 80 237.414062 C 79.996094 237.386719 79.988281 237.359375 79.972656 237.332031 C 79.960938 237.308594 79.941406 237.285156 79.917969 237.269531 C 75.652344 234.210938 71.828125 230.375 68.445312 225.761719 C 68.320312 225.59375 68.277344 225.40625 68.320312 225.199219 C 68.636719 223.582031 69.695312 222.25 71.492188 221.199219 C 73.695312 219.90625 75.839844 219.714844 77.921875 220.617188 C 78.121094 220.707031 78.246094 220.859375 78.289062 221.074219 C 78.5625 222.402344 78.691406 223.640625 79.675781 224.703125 C 81.605469 226.800781 83.703125 228.796875 85.976562 230.691406 C 87.296875 231.789062 90.375 234.742188 89.308594 236.738281 C 87.980469 239.210938 86.148438 240.3125 83.816406 240.039062 C 83.472656 240.003906 83.179688 240.113281 82.945312 240.375 C 80.164062 243.460938 79.195312 248.828125 74.546875 249.828125 C 72.929688 250.175781 71.394531 250.5 69.945312 250.804688 C 68.808594 251.046875 68.085938 250.675781 67.777344 249.699219 C 67.453125 248.660156 68.171875 247.929688 68.890625 247.289062 C 71.316406 245.109375 73.957031 242.855469 76.808594 240.523438 C 77.902344 239.625 78.949219 238.640625 79.949219 237.574219 Z M 79.949219 237.574219 " fill-opacity="1" fill-rule="nonzero"/><path fill="#ffffff" d="M 296.328125 235.859375 C 296.167969 235.671875 295.945312 235.554688 295.703125 235.527344 C 295.460938 235.503906 295.214844 235.574219 295.023438 235.722656 C 290.523438 239.253906 285.832031 242.179688 280.945312 244.511719 C 278.488281 245.6875 275.828125 245.035156 274.945312 242.335938 C 274.609375 241.296875 273.941406 240.199219 273.917969 239.101562 C 273.890625 237.742188 274.292969 236.503906 275.128906 235.382812 C 275.285156 235.171875 275.519531 235.03125 275.777344 234.988281 C 276.039062 234.941406 276.304688 235 276.519531 235.148438 C 276.929688 235.425781 277.347656 235.605469 277.78125 235.691406 C 278.03125 235.742188 278.273438 235.707031 278.503906 235.585938 C 281.117188 234.21875 283.613281 232.425781 285.996094 230.207031 C 287.742188 228.582031 290.050781 226.304688 292.628906 226.875 C 295.867188 227.589844 297.667969 229.464844 298.039062 232.507812 C 298.0625 232.703125 298.136719 232.890625 298.253906 233.054688 C 298.367188 233.214844 298.523438 233.347656 298.699219 233.4375 C 301.589844 234.871094 304.449219 236.5625 307.273438 238.511719 C 309.105469 239.769531 309.945312 241.617188 309.796875 244.054688 C 309.6875 245.933594 308.769531 246.632812 307.050781 246.148438 C 306.125 245.890625 305.117188 245.21875 304.027344 244.132812 C 301.007812 241.121094 298.441406 238.363281 296.328125 235.859375 Z M 296.328125 235.859375 " fill-opacity="1" fill-rule="nonzero"/><path fill="#ffffff" d="M 373.519531 253.402344 L 373.519531 255.949219 C 373.15625 257.398438 372.699219 258.589844 372.144531 259.523438 C 369.976562 263.234375 367.179688 265.976562 363.75 267.742188 C 362.75 268.257812 361.4375 268.5625 359.8125 268.652344 C 352.75 269.046875 346.800781 266.90625 341.972656 262.222656 C 340.855469 261.140625 339.785156 260.050781 338.765625 258.945312 C 338.515625 258.675781 338.402344 258.726562 338.417969 259.09375 C 338.492188 260.710938 338.832031 262.414062 338.738281 264.003906 C 338.617188 266.074219 338.117188 268.292969 337.242188 270.65625 C 334.742188 277.433594 330.125 281.804688 323.390625 283.773438 C 318.265625 285.269531 310.667969 286.714844 306.316406 284.148438 C 302.785156 282.058594 298.242188 277.53125 298.941406 273.148438 C 299.054688 272.453125 299.394531 271.902344 299.96875 271.496094 C 300.109375 271.398438 300.273438 271.332031 300.441406 271.300781 C 300.613281 271.273438 300.789062 271.285156 300.957031 271.332031 C 301.121094 271.378906 301.277344 271.464844 301.40625 271.582031 C 301.535156 271.695312 301.636719 271.839844 301.707031 271.996094 C 303.410156 276.085938 305.230469 279.914062 310.070312 280.648438 C 313.636719 281.191406 317.53125 279.9375 321.148438 278.949219 C 325.429688 277.773438 328.816406 275.378906 331.453125 271.714844 C 334.445312 267.546875 336.371094 262.355469 335.933594 257.3125 C 335.828125 256.125 335.5 254.972656 334.742188 254.015625 C 332.378906 251.03125 330.109375 247.949219 327.929688 244.769531 C 326.097656 242.113281 323.082031 238.722656 319.917969 237.53125 C 318.847656 237.128906 317.839844 237.511719 316.925781 236.6875 C 315.550781 235.453125 314.023438 234.566406 312.34375 234.03125 C 309.167969 233.015625 306.113281 231.976562 303.183594 230.917969 C 303.027344 230.863281 302.886719 230.773438 302.773438 230.65625 C 302.65625 230.535156 302.570312 230.394531 302.515625 230.238281 C 302.464844 230.082031 302.445312 229.914062 302.464844 229.75 C 302.488281 229.585938 302.542969 229.425781 302.632812 229.285156 C 304.203125 226.832031 313.976562 231.308594 316.164062 232.210938 C 316.863281 232.5 317.582031 232.628906 318.316406 232.601562 C 319.953125 232.527344 321.371094 233.632812 322.445312 234.769531 C 322.652344 234.988281 322.785156 234.953125 322.847656 234.660156 C 324.476562 226.972656 344.765625 247.808594 346.875 249.886719 C 349.265625 252.242188 353.082031 252.476562 355.109375 255.046875 C 355.164062 255.117188 355.207031 255.199219 355.230469 255.289062 C 355.25 255.375 355.257812 255.46875 355.242188 255.558594 C 355.226562 255.648438 355.191406 255.730469 355.140625 255.808594 C 355.089844 255.882812 355.023438 255.945312 354.949219 255.996094 C 352.394531 257.613281 347.269531 255.417969 345.015625 253.902344 C 340.140625 250.625 336.015625 246.785156 332.644531 242.378906 C 330.566406 239.664062 327.761719 238.242188 324.894531 236.726562 C 324.425781 236.476562 324.378906 236.539062 324.75 236.910156 C 327.59375 239.753906 330.519531 242.710938 333.523438 245.773438 C 334.113281 246.378906 334.582031 247.089844 334.933594 247.90625 C 335.339844 248.859375 335.992188 249.828125 336.886719 250.816406 C 339.078125 253.25 341.160156 255.414062 343.128906 257.304688 C 345.503906 259.582031 348.539062 262.296875 351.800781 263.082031 C 356.550781 264.222656 360.90625 263.480469 364.875 260.855469 C 367.535156 259.09375 369.507812 256.265625 368.003906 253.050781 C 366.921875 250.726562 368.214844 247.417969 371.175781 249.679688 C 372.40625 250.625 373.1875 251.867188 373.519531 253.402344 Z M 373.519531 253.402344 " fill-opacity="1" fill-rule="nonzero"/><path fill="#ffffff" d="M 54.089844 235.394531 C 50.851562 235.644531 47.035156 238.722656 44.835938 240.867188 C 41.976562 243.664062 38.878906 246.71875 35.550781 250.039062 C 33.375 252.203125 31.15625 253.988281 28.898438 255.394531 C 26.910156 256.636719 21.667969 258.738281 19.3125 257.046875 C 19.226562 256.980469 19.152344 256.902344 19.097656 256.8125 C 19.042969 256.722656 19.003906 256.621094 18.988281 256.515625 C 18.972656 256.410156 18.976562 256.304688 19.003906 256.203125 C 19.03125 256.101562 19.074219 256.003906 19.136719 255.917969 C 19.660156 255.203125 20.304688 254.683594 21.074219 254.367188 C 23.121094 253.527344 24.9375 252.5 26.625 251.054688 C 33.707031 244.972656 40.636719 238.890625 48.691406 234.394531 C 52.304688 232.382812 55.492188 231.933594 59.5625 232.070312 C 62.550781 232.167969 65.996094 229.132812 68.777344 230.765625 C 68.921875 230.847656 69.042969 230.96875 69.128906 231.109375 C 69.21875 231.25 69.269531 231.414062 69.28125 231.578125 C 69.289062 231.746094 69.261719 231.910156 69.191406 232.0625 C 69.125 232.210938 69.019531 232.34375 68.890625 232.445312 C 67.980469 233.148438 66.964844 233.574219 65.835938 233.726562 C 63.238281 234.085938 61.679688 237.800781 60.773438 240.140625 C 59.496094 243.429688 58.488281 247.136719 57.753906 251.261719 C 57.441406 253.03125 57.460938 254.53125 57.8125 255.757812 C 58.886719 259.523438 61.246094 262.167969 64.890625 263.691406 C 66.582031 264.402344 68.375 264.453125 70.160156 264.742188 C 71.132812 264.902344 71.34375 265.386719 70.785156 266.203125 L 70.5625 266.523438 C 70.308594 266.898438 69.96875 267.199219 69.570312 267.410156 C 69.171875 267.621094 68.730469 267.730469 68.28125 267.730469 C 63.441406 267.742188 58.183594 265.132812 55.234375 261.738281 C 49.804688 255.488281 54.703125 247.378906 57.476562 241.089844 C 57.917969 240.101562 58.089844 239.082031 58.257812 238.042969 C 58.269531 237.964844 58.261719 237.886719 58.234375 237.8125 C 58.203125 237.738281 58.15625 237.675781 58.09375 237.628906 C 58.03125 237.582031 57.957031 237.550781 57.878906 237.542969 C 57.800781 237.535156 57.722656 237.550781 57.648438 237.585938 C 56.234375 238.257812 54.921875 239.113281 53.710938 240.15625 C 50.019531 243.355469 46.90625 247.050781 44.367188 251.246094 C 42.371094 254.53125 40.433594 257.835938 38.550781 261.15625 C 35.050781 267.316406 29.738281 272.140625 22.148438 271.527344 C 17.898438 271.183594 14.023438 269.878906 10.519531 267.613281 C 5.167969 264.140625 3.53125 259.332031 5.613281 253.179688 C 5.972656 252.113281 6.738281 251.230469 7.738281 250.726562 C 8.074219 250.554688 8.425781 250.445312 8.796875 250.398438 C 9.914062 250.253906 10.292969 250.714844 9.941406 251.78125 C 8.699219 255.519531 5.082031 258.621094 9.316406 262.257812 C 11.132812 263.808594 12.117188 265.3125 14.855469 265.75 C 17.289062 266.144531 20.039062 266.171875 23.101562 265.832031 C 26.839844 265.417969 29.84375 262.9375 32.644531 260.722656 C 33.722656 259.875 34.816406 258.585938 35.929688 256.859375 C 37.449219 254.496094 39.363281 251.808594 41.675781 248.789062 C 44.402344 245.246094 47.082031 242.101562 49.71875 239.359375 C 51.074219 237.949219 52.75 236.980469 54.230469 235.746094 C 54.554688 235.480469 54.507812 235.363281 54.089844 235.394531 Z M 54.089844 235.394531 " fill-opacity="1" fill-rule="nonzero"/><path fill="#ffffff" d="M 226.738281 237.097656 C 226.507812 236.296875 226.195312 235.492188 225.800781 234.691406 C 225.734375 234.558594 225.703125 234.410156 225.710938 234.261719 C 225.71875 234.109375 225.761719 233.964844 225.839844 233.839844 C 225.917969 233.710938 226.023438 233.605469 226.152344 233.53125 C 226.285156 233.457031 226.429688 233.417969 226.578125 233.417969 C 227.757812 233.390625 228.242188 234.542969 228.519531 235.492188 C 228.597656 235.765625 228.78125 236 229.03125 236.136719 C 232.140625 237.898438 235.21875 239.082031 236.566406 242.773438 C 237.308594 244.796875 238.300781 246.527344 239.542969 247.960938 C 239.621094 248.054688 239.667969 248.175781 239.675781 248.300781 C 239.679688 248.425781 239.644531 248.546875 239.574219 248.648438 C 238.210938 250.546875 235.5 249.394531 233.8125 248.5 C 230.609375 246.785156 228.304688 244.898438 227.636719 241.042969 C 227.394531 239.648438 227.097656 238.332031 226.738281 237.097656 Z M 226.738281 237.097656 " fill-opacity="1" fill-rule="nonzero"/><path fill="#ffffff" d="M 104.296875 253.847656 C 104.179688 253.6875 104.035156 253.558594 103.871094 253.464844 C 98.628906 250.496094 94.519531 247.738281 91.539062 245.191406 C 89.863281 243.75 89.535156 242.011719 90.5625 239.972656 C 91.609375 237.890625 93.507812 236.660156 96.261719 236.285156 C 96.511719 236.25 96.765625 236.296875 96.988281 236.417969 C 97.210938 236.535156 97.390625 236.722656 97.503906 236.949219 C 98.21875 238.402344 99.371094 239.617188 100.972656 240.589844 C 104.136719 242.511719 106.964844 244.480469 109.453125 246.496094 C 110.890625 247.660156 111.28125 249.132812 110.621094 250.902344 C 109.425781 254.125 108.050781 257.289062 106.492188 260.394531 C 105.070312 263.214844 102.058594 267.105469 98.875 267.984375 C 97.734375 268.304688 95.667969 268.84375 94.691406 267.882812 C 94.5625 267.757812 94.488281 267.589844 94.484375 267.410156 C 94.476562 267.230469 94.539062 267.054688 94.660156 266.921875 C 97.339844 263.964844 99.804688 261.148438 102.054688 258.472656 C 102.984375 257.367188 103.765625 256.132812 104.390625 254.761719 C 104.460938 254.617188 104.488281 254.453125 104.472656 254.292969 C 104.453125 254.132812 104.394531 253.976562 104.296875 253.847656 Z M 104.296875 253.847656 " fill-opacity="1" fill-rule="nonzero"/><path fill="#ffffff" d="M 225.570312 240.683594 C 225.667969 244.261719 225.0625 247.050781 222.96875 250.136719 C 222.175781 251.3125 221.21875 252.554688 219.945312 253.253906 C 219.804688 253.332031 219.640625 253.375 219.480469 253.375 C 219.316406 253.375 219.15625 253.328125 219.011719 253.25 C 218.871094 253.167969 218.75 253.050781 218.667969 252.910156 C 218.582031 252.769531 218.535156 252.609375 218.53125 252.445312 C 218.480469 250.664062 218.496094 248.882812 218.578125 247.101562 C 218.695312 244.40625 220.371094 242.023438 222.078125 240.027344 C 222.78125 239.199219 223.125 238.179688 223.761719 237.304688 C 223.808594 237.238281 223.871094 237.1875 223.945312 237.152344 C 224.019531 237.117188 224.101562 237.097656 224.183594 237.101562 C 224.265625 237.105469 224.347656 237.128906 224.417969 237.171875 C 224.488281 237.214844 224.550781 237.273438 224.59375 237.34375 C 225.210938 238.335938 225.539062 239.449219 225.570312 240.683594 Z M 225.570312 240.683594 " fill-opacity="1" fill-rule="nonzero"/><path fill="#ffffff" d="M 153.449219 240.300781 C 152.671875 245.203125 151.027344 250.582031 146.296875 252.609375 C 145.265625 253.050781 144.269531 253.527344 143.3125 254.039062 C 142.402344 254.523438 141.085938 254.316406 140.8125 253.191406 C 140.765625 252.988281 140.792969 252.792969 140.90625 252.617188 C 141.492188 251.652344 142.332031 251.015625 142.792969 249.953125 C 143.421875 248.484375 143.980469 247.019531 144.46875 245.5625 C 145.257812 243.199219 146.839844 240.472656 148.84375 239.136719 C 149.785156 238.507812 150.84375 238.007812 152.007812 237.648438 C 153.195312 237.277344 153.96875 238.625 153.664062 239.589844 C 153.523438 240.03125 153.453125 240.265625 153.449219 240.300781 Z M 153.449219 240.300781 " fill-opacity="1" fill-rule="nonzero"/><path fill="#ffffff" d="M 320.992188 255.394531 C 322.550781 251.863281 319.007812 245.753906 317.609375 242.511719 C 317.085938 241.292969 316.863281 240.074219 316.9375 238.859375 C 316.945312 238.714844 316.992188 238.578125 317.070312 238.460938 C 317.148438 238.339844 317.257812 238.242188 317.382812 238.175781 C 317.511719 238.113281 317.652344 238.082031 317.796875 238.089844 C 317.9375 238.09375 318.078125 238.140625 318.199219 238.214844 C 318.566406 238.445312 318.898438 238.71875 319.191406 239.03125 C 323.371094 243.476562 326.457031 250.09375 325.457031 256.425781 C 324.769531 260.769531 317.5 266.109375 313.375 265.703125 C 313.273438 265.691406 313.179688 265.644531 313.109375 265.566406 C 313.039062 265.488281 313.003906 265.390625 313.003906 265.289062 C 313.046875 263.453125 315.6875 261.726562 317.011719 260.761719 C 318.847656 259.421875 320.113281 257.390625 320.992188 255.394531 Z M 320.992188 255.394531 " fill-opacity="1" fill-rule="nonzero"/><path fill="#ffffff" d="M 142.878906 241.738281 C 139.65625 245.417969 135.90625 246.796875 130.804688 246.113281 C 129.914062 245.992188 129.203125 245.605469 128.667969 244.957031 C 128.519531 244.777344 128.425781 244.5625 128.394531 244.335938 C 128.359375 244.105469 128.390625 243.871094 128.480469 243.660156 C 128.570312 243.449219 128.714844 243.265625 128.902344 243.128906 C 129.089844 242.992188 129.308594 242.910156 129.539062 242.890625 C 131.539062 242.730469 134.1875 240.90625 135.832031 239.835938 C 138.617188 238.03125 141.652344 240.421875 144.324219 239.210938 C 145.042969 238.886719 145.785156 238.617188 146.550781 238.402344 C 147.472656 238.136719 147.722656 238.4375 147.304688 239.296875 C 146.773438 240.382812 145.835938 240.941406 144.492188 240.980469 C 144.1875 240.988281 143.882812 241.058594 143.605469 241.191406 C 143.328125 241.320312 143.082031 241.507812 142.878906 241.738281 Z M 142.878906 241.738281 " fill-opacity="1" fill-rule="nonzero"/><path fill="#ffffff" d="M 163.585938 250.238281 C 164.007812 251.378906 164.570312 252.097656 164.21875 253.390625 C 164.171875 253.558594 164.089844 253.714844 163.980469 253.847656 C 163.875 253.984375 163.738281 254.09375 163.585938 254.175781 C 163.429688 254.257812 163.261719 254.304688 163.089844 254.320312 C 162.917969 254.332031 162.742188 254.3125 162.578125 254.253906 C 158.789062 252.953125 155.914062 247.523438 155.230469 243.730469 C 154.980469 242.371094 154.605469 241.058594 154.105469 239.792969 C 154.007812 239.558594 154.042969 239.339844 154.203125 239.144531 C 154.398438 238.898438 154.628906 238.71875 154.902344 238.597656 C 155.148438 238.488281 155.332031 238.550781 155.457031 238.789062 C 156 239.878906 156.773438 240.796875 157.777344 241.546875 C 160.5625 243.636719 162.351562 246.886719 163.585938 250.238281 Z M 163.585938 250.238281 " fill-opacity="1" fill-rule="nonzero"/><path fill="#ffffff" d="M 248.382812 240.269531 C 249.445312 240.730469 251.441406 241.515625 252.171875 242.46875 C 252.339844 242.691406 252.417969 242.96875 252.382812 243.246094 C 252.347656 243.523438 252.203125 243.773438 251.984375 243.949219 C 250.421875 245.1875 248.53125 245.691406 246.304688 245.449219 C 242.25 245.019531 238.652344 243.742188 236.152344 240.347656 C 236.046875 240.207031 235.984375 240.039062 235.96875 239.863281 C 235.957031 239.683594 235.988281 239.507812 236.070312 239.351562 C 236.148438 239.191406 236.269531 239.058594 236.421875 238.964844 C 236.570312 238.871094 236.742188 238.820312 236.921875 238.820312 C 240.832031 238.785156 244.828125 238.730469 248.382812 240.269531 Z M 248.382812 240.269531 " fill-opacity="1" fill-rule="nonzero"/><path fill="#ffffff" d="M 255.683594 258.894531 C 254.371094 258.984375 253.128906 258.867188 251.953125 258.542969 C 247.863281 257.410156 247.835938 252.539062 250.371094 249.855469 C 251.019531 249.160156 251.90625 249.234375 252.75 249.394531 C 255.074219 249.835938 257.074219 248.28125 258.921875 250.726562 C 259.875 251.988281 260.515625 253.371094 260.84375 254.882812 C 261.089844 256.023438 259.75 257.0625 258.964844 257.699219 C 258.742188 257.886719 258.730469 258.078125 258.933594 258.28125 C 260.1875 259.554688 263.199219 259.933594 264.90625 260.378906 C 266.585938 260.816406 267.125 262.191406 267.878906 263.542969 C 268.074219 263.894531 268.3125 263.929688 268.59375 263.644531 C 269.417969 262.800781 270.46875 262.238281 270.890625 261.082031 C 271.203125 260.230469 271.355469 259.398438 271.347656 258.589844 C 271.324219 256.445312 271.226562 254 271.042969 251.261719 C 271.042969 251.21875 271.027344 251.179688 271.007812 251.140625 C 270.984375 251.101562 270.957031 251.070312 270.921875 251.046875 C 270.882812 251.023438 270.84375 251.007812 270.800781 251.003906 C 270.757812 250.996094 270.714844 251 270.671875 251.015625 C 269.9375 251.269531 269.191406 251.535156 268.433594 251.8125 C 266.011719 252.714844 263.5 251.457031 262.375 249.242188 C 261.351562 247.222656 261.492188 245.210938 262.796875 243.210938 C 263.324219 242.40625 264.3125 242.125 265.214844 242.289062 C 266.410156 242.503906 267.644531 242.507812 268.917969 242.296875 C 272.101562 241.757812 273.886719 246.007812 274.085938 248.457031 C 274.171875 249.539062 274.390625 250.632812 274.746094 251.738281 C 275.804688 255.058594 276.71875 258.824219 277.484375 263.039062 C 278.234375 267.117188 275.140625 271.390625 273.082031 274.582031 C 271.699219 276.742188 271.945312 279.066406 273.140625 281.335938 C 273.851562 282.695312 272.242188 284.953125 270.726562 284.210938 C 268.601562 283.164062 266.171875 278.644531 265.269531 276.757812 C 263.761719 273.59375 265.839844 269.796875 266.597656 266.679688 C 266.625 266.570312 266.628906 266.457031 266.613281 266.347656 C 266.59375 266.234375 266.554688 266.128906 266.492188 266.035156 C 266.429688 265.941406 266.351562 265.859375 266.257812 265.796875 C 266.164062 265.734375 266.058594 265.691406 265.949219 265.671875 C 261.917969 264.90625 256.429688 264.476562 256.003906 259.167969 C 255.988281 258.972656 255.878906 258.882812 255.683594 258.894531 Z M 255.683594 258.894531 " fill-opacity="1" fill-rule="nonzero"/><path fill="#ffffff" d="M 287.234375 246.605469 L 292.804688 252.519531 C 293.019531 252.75 293.175781 253.035156 293.257812 253.339844 C 293.335938 253.648438 293.339844 253.972656 293.261719 254.28125 L 292.582031 257.003906 C 292.492188 257.351562 292.304688 257.667969 292.042969 257.917969 C 291.78125 258.164062 291.453125 258.332031 291.097656 258.398438 C 290.746094 258.46875 290.378906 258.433594 290.042969 258.300781 C 289.707031 258.167969 289.417969 257.941406 289.207031 257.652344 L 284.699219 251.410156 C 284.523438 251.171875 284.40625 250.894531 284.359375 250.601562 L 283.976562 248.214844 C 283.910156 247.8125 283.972656 247.398438 284.160156 247.039062 C 284.34375 246.675781 284.644531 246.382812 285.007812 246.203125 C 285.375 246.023438 285.785156 245.964844 286.1875 246.035156 C 286.589844 246.109375 286.953125 246.308594 287.234375 246.605469 Z M 287.234375 246.605469 " fill-opacity="1" fill-rule="nonzero"/><path fill="#ffffff" d="M 116.007812 258.324219 C 115.375 257.8125 114.640625 257.472656 114.257812 256.710938 C 113.414062 255.007812 113.644531 253.519531 114.941406 252.246094 C 116.644531 250.582031 120.183594 248.214844 122.398438 250.515625 C 123.035156 251.171875 123.808594 251.820312 124.597656 252.289062 C 128.207031 254.445312 132.148438 256.167969 136.410156 257.460938 C 138.796875 258.183594 141.28125 260.273438 139.832031 263.019531 C 138.902344 264.769531 136.695312 265.25 136.1875 267.25 C 135.542969 269.824219 135.148438 271.960938 135.003906 273.660156 C 134.636719 277.996094 132.226562 280.496094 127.777344 281.148438 C 127.59375 281.175781 127.410156 281.15625 127.238281 281.09375 C 127.066406 281.03125 126.910156 280.929688 126.789062 280.792969 C 126.667969 280.65625 126.578125 280.492188 126.535156 280.3125 C 126.492188 280.132812 126.496094 279.949219 126.539062 279.769531 C 126.890625 278.386719 127.261719 277.050781 127.960938 275.832031 C 129.632812 272.90625 131.140625 269.957031 132.472656 266.988281 C 132.960938 265.917969 131.835938 265.292969 131.003906 265.070312 C 127.738281 264.21875 124.386719 262.71875 120.953125 260.578125 C 120.476562 260.28125 119.746094 260.082031 119.207031 259.890625 C 118.769531 259.738281 118.421875 259.851562 118.15625 260.238281 C 116.804688 262.226562 115.804688 264.214844 115.160156 266.199219 C 114.070312 269.523438 111.683594 272.472656 108.144531 273.289062 C 107.050781 273.542969 106.117188 273.394531 105.347656 272.84375 C 105.253906 272.777344 105.179688 272.6875 105.136719 272.578125 C 105.089844 272.472656 105.078125 272.355469 105.09375 272.238281 C 105.335938 270.785156 106.617188 269.371094 107.488281 268.1875 C 108.972656 266.179688 109.867188 263.550781 111.414062 261.832031 C 112.375 260.761719 113.878906 259.769531 115.933594 258.855469 C 116.25 258.71875 116.273438 258.539062 116.007812 258.324219 Z M 116.007812 258.324219 " fill-opacity="1" fill-rule="nonzero"/><path fill="#ffffff" d="M 241.5 264.769531 C 241.34375 264.488281 241.09375 264.273438 240.792969 264.164062 C 240.492188 264.054688 240.160156 264.058594 239.863281 264.175781 C 235.550781 265.832031 231.140625 267.054688 226.621094 267.835938 C 225.113281 268.101562 223.699219 268.058594 222.640625 266.746094 C 220.914062 264.613281 220.703125 262.140625 222.003906 259.332031 C 222.449219 258.375 223.523438 258.058594 224.488281 258.386719 C 225.578125 258.753906 226.601562 258.808594 227.566406 258.546875 C 231.878906 257.398438 236.488281 256.261719 241.394531 255.136719 C 242.101562 254.972656 242.804688 255.0625 243.503906 255.402344 C 245.777344 256.496094 246.6875 258.234375 246.230469 260.613281 C 246.074219 261.417969 245.636719 262.003906 245.242188 262.691406 C 245.121094 262.902344 245.0625 263.144531 245.078125 263.390625 C 245.09375 263.636719 245.179688 263.871094 245.328125 264.070312 C 246.726562 265.949219 247.996094 267.777344 249.140625 269.554688 C 251.007812 272.449219 252.042969 275.746094 250.019531 278.972656 C 249.308594 280.117188 247.757812 280.382812 246.742188 279.515625 C 246.582031 279.378906 246.476562 279.203125 246.421875 279 C 245.230469 274.175781 243.882812 269.066406 241.5 264.769531 Z M 241.5 264.769531 " fill-opacity="1" fill-rule="nonzero"/><path fill="#ffffff" d="M 49.238281 282.910156 C 42.351562 278.921875 37.722656 266.371094 40.484375 259.046875 C 40.75 258.347656 41.207031 257.96875 41.851562 257.917969 C 42.09375 257.894531 42.335938 257.972656 42.523438 258.128906 C 42.714844 258.285156 42.832031 258.507812 42.859375 258.75 C 42.96875 259.933594 43.015625 261.089844 42.992188 262.21875 C 42.933594 266.011719 44.242188 271.875 47.066406 274.351562 C 47.605469 274.824219 48.070312 275.359375 48.457031 275.960938 C 49.964844 278.304688 53.84375 279.453125 56.394531 279.972656 C 61.316406 280.988281 65.890625 281.050781 70.117188 280.167969 C 74.539062 279.230469 79.535156 276.21875 79.089844 270.867188 C 78.996094 269.738281 78.542969 267.753906 79.230469 266.789062 C 79.328125 266.65625 79.457031 266.542969 79.601562 266.464844 C 79.75 266.390625 79.914062 266.347656 80.082031 266.34375 C 80.246094 266.34375 80.414062 266.378906 80.5625 266.453125 C 80.710938 266.527344 80.84375 266.632812 80.945312 266.765625 C 83.09375 269.617188 82.253906 274.785156 80.015625 277.214844 C 73.582031 284.203125 64.730469 288.847656 55.480469 285.683594 C 53.101562 284.867188 51.023438 283.941406 49.238281 282.910156 Z M 49.238281 282.910156 " fill-opacity="1" fill-rule="nonzero"/><path fill="#ffffff" d="M 163.46875 271.683594 C 163.097656 271.371094 162.644531 271.171875 162.101562 271.074219 C 156.320312 270.027344 150.816406 268.707031 145.585938 267.105469 C 144.929688 266.902344 144.542969 266.398438 144.421875 265.589844 C 144.066406 263.136719 145.132812 261.082031 147.632812 259.417969 C 148.484375 258.855469 149.25 258.707031 150.183594 259.316406 C 151.816406 260.375 153.894531 261.09375 156.421875 261.472656 C 159.433594 261.925781 162.316406 262.421875 165.0625 262.957031 C 168.261719 263.582031 170.6875 265.132812 169.738281 268.730469 C 169.261719 270.53125 167.152344 271.339844 167.097656 273.234375 C 167.03125 275.464844 167.011719 277.648438 167.042969 279.78125 C 167.074219 282.230469 166.3125 284.359375 164.75 286.171875 C 163.59375 287.511719 162.53125 288.972656 160.558594 287.414062 C 159.820312 286.828125 159.617188 286.082031 159.945312 285.167969 C 160.78125 282.859375 161.457031 280.769531 161.96875 278.898438 C 162.574219 276.679688 163.742188 274.898438 163.839844 272.511719 C 163.847656 272.351562 163.816406 272.195312 163.75 272.050781 C 163.6875 271.910156 163.589844 271.78125 163.46875 271.683594 Z M 163.46875 271.683594 " fill-opacity="1" fill-rule="nonzero"/><path fill="#ffffff" d="M 214.121094 271.460938 C 214.121094 271.386719 214.101562 271.316406 214.070312 271.253906 C 214.039062 271.191406 213.992188 271.132812 213.941406 271.085938 C 213.886719 271.039062 213.820312 271.007812 213.753906 270.988281 C 213.683594 270.96875 213.613281 270.960938 213.539062 270.972656 C 208.152344 271.683594 202.671875 272.125 197.109375 272.289062 C 194.605469 272.363281 192.589844 270.484375 192.789062 267.949219 C 192.917969 266.222656 193.066406 263.054688 195.304688 262.625 C 195.515625 262.582031 195.71875 262.609375 195.917969 262.703125 C 197.105469 263.265625 198.246094 263.542969 199.339844 263.542969 C 204.171875 263.523438 208.761719 263.300781 213.113281 262.875 C 214.484375 262.746094 215.691406 263.035156 216.738281 263.75 C 219 265.289062 218.175781 267.921875 217.28125 269.996094 C 217.21875 270.144531 217.191406 270.304688 217.199219 270.46875 C 217.210938 270.628906 217.261719 270.789062 217.34375 270.929688 C 218.808594 273.394531 221.964844 279.660156 220.5 282.453125 C 219.511719 284.347656 219.050781 286.90625 216.371094 286.949219 C 216.261719 286.949219 216.15625 286.917969 216.066406 286.855469 C 215.976562 286.792969 215.910156 286.703125 215.871094 286.605469 C 215.4375 285.480469 215.148438 284.265625 215.007812 282.957031 C 214.574219 279.046875 214.277344 275.214844 214.121094 271.460938 Z M 214.121094 271.460938 " fill-opacity="1" fill-rule="nonzero"/><path fill="#ffffff" d="M 349.25 279.007812 C 348.207031 279.71875 347.242188 279.660156 346.355469 278.835938 C 343.265625 275.960938 343.09375 272.257812 341.039062 268.898438 C 340.929688 268.722656 340.867188 268.515625 340.859375 268.308594 C 340.851562 268.097656 340.894531 267.890625 340.988281 267.703125 C 341.082031 267.519531 341.222656 267.355469 341.394531 267.238281 C 341.566406 267.121094 341.765625 267.046875 341.972656 267.027344 C 345.371094 266.671875 350.070312 275.300781 349.601562 278.453125 C 349.5625 278.6875 349.445312 278.875 349.25 279.007812 Z M 349.25 279.007812 " fill-opacity="1" fill-rule="nonzero"/><path fill="#ffffff" d="M 33.871094 277.773438 C 32.792969 279.4375 31.085938 280.53125 29.058594 280.015625 C 28.949219 279.988281 28.839844 279.9375 28.75 279.871094 C 28.65625 279.800781 28.578125 279.710938 28.519531 279.613281 C 28.460938 279.511719 28.425781 279.398438 28.410156 279.285156 C 28.394531 279.171875 28.402344 279.054688 28.433594 278.941406 C 29.398438 275.550781 32.359375 272.363281 34.96875 270.078125 C 35.554688 269.570312 36.191406 269.460938 36.878906 269.753906 C 37.132812 269.859375 37.335938 270.0625 37.441406 270.320312 C 37.546875 270.574219 37.546875 270.863281 37.441406 271.117188 C 36.578125 273.222656 35.386719 275.4375 33.871094 277.773438 Z M 33.871094 277.773438 " fill-opacity="1" fill-rule="nonzero"/><path fill="#ffffff" d="M 146.996094 274.871094 L 144.960938 282.261719 C 144.890625 282.519531 144.765625 282.757812 144.59375 282.960938 C 144.425781 283.164062 144.210938 283.328125 143.972656 283.445312 L 141.4375 284.667969 C 141.101562 284.832031 140.726562 284.890625 140.359375 284.835938 C 139.988281 284.78125 139.644531 284.621094 139.371094 284.367188 C 139.097656 284.117188 138.902344 283.789062 138.816406 283.425781 C 138.730469 283.066406 138.753906 282.683594 138.882812 282.335938 L 141.445312 275.511719 C 141.550781 275.222656 141.722656 274.96875 141.949219 274.769531 L 143.964844 272.988281 C 144.265625 272.71875 144.644531 272.558594 145.042969 272.523438 C 145.445312 272.492188 145.84375 272.585938 146.183594 272.796875 C 146.523438 273.011719 146.789062 273.328125 146.933594 273.703125 C 147.082031 274.074219 147.101562 274.484375 146.996094 274.871094 Z M 146.996094 274.871094 " fill-opacity="1" fill-rule="nonzero"/><path fill="#ffffff" d="M 195.304688 290.445312 L 193.617188 290.445312 C 193.140625 287.5625 193.230469 284.367188 193.890625 280.859375 C 194.207031 279.152344 195 277.84375 196.261719 276.9375 C 196.453125 276.800781 196.664062 276.753906 196.894531 276.789062 C 198.464844 277.050781 199.320312 277.894531 199.464844 279.324219 C 199.929688 283.9375 200.164062 288.160156 195.304688 290.445312 Z M 195.304688 290.445312 " fill-opacity="1" fill-rule="nonzero"/></svg>